<?xml version="1.0" encoding="UTF-8"?>
<svg width="38px" height="38px" viewBox="0 0 38 38" version="1.1" xmlns="http://www.w3.org/2000/svg" xmlns:xlink="http://www.w3.org/1999/xlink">
    <!-- Generator: sketchtool 52.6 (67491) - http://www.bohemiancoding.com/sketch -->
    <title>28828C23-D824-4646-BEB5-C5C16C9D624D</title>
    <desc>Created with sketchtool.</desc>
    <defs>
        <path d="M28.5974445,11.5349965 C28.0059463,11.5262465 28.0059463,12.4187438 28.5974445,12.4099938 L31.2224366,12.4099938 C31.4726858,12.4099938 31.6599352,12.5972432 31.6599352,12.8474925 L31.6599352,31.2224366 C31.6599352,31.4726858 31.4726858,31.6599352 31.2224366,31.6599352 L12.8474925,31.6599352 C12.5972432,31.6599352 12.4099938,31.4726858 12.4099938,31.2224366 L12.4099938,28.5974445 C12.4187438,28.0059463 11.5262465,28.0059463 11.5349965,28.5974445 L11.5349965,31.2224366 C11.5349965,31.9416844 12.1282447,32.5349326 12.8474925,32.5349326 L31.2224366,32.5349326 C31.9416844,32.5349326 32.5349326,31.9416844 32.5349326,31.2224366 L32.5349326,12.8474925 C32.5349326,12.1282447 31.9416844,11.5349965 31.2224366,11.5349965 L28.5974445,11.5349965 Z M11.4,16 L20.6,16 C20.8209139,16 21,16.1790861 21,16.4 L21,16.4 C21,16.6209139 20.8209139,16.8 20.6,16.8 L11.4,16.8 C11.1790861,16.8 11,16.6209139 11,16.4 L11,16.4 C11,16.1790861 11.1790861,16 11.4,16 Z M16.4,11.8 L16.4,21 C16.4,21.2209139 16.2209139,21.4 16,21.4 L16,21.4 C15.7790861,21.4 15.6,21.2209139 15.6,21 L15.6,11.8 C15.6,11.5790861 15.7790861,11.4 16,11.4 L16,11.4 C16.2209139,11.4 16.4,11.5790861 16.4,11.8 Z M6.38374999,5 C5.62545499,5 5,5.62545499 5,6.38374999 L5,25.7562498 C5,26.5145448 5.62545499,27.1399998 6.38374999,27.1399998 L25.7562498,27.1399998 C26.5145448,27.1399998 27.1399998,26.5145448 27.1399998,25.7562498 L27.1399998,6.38374999 C27.1399998,5.62545499 26.5145448,5 25.7562498,5 L6.38374999,5 Z M6.38374999,5.92249999 L25.7562498,5.92249999 C26.0200848,5.92249999 26.2174998,6.11991499 26.2174998,6.38374999 L26.2174998,25.7562498 C26.2174998,26.0200848 26.0200848,26.2174998 25.7562498,26.2174998 L6.38374999,26.2174998 C6.11991499,26.2174998 5.92249999,26.0200848 5.92249999,25.7562498 L5.92249999,6.38374999 C5.92249999,6.11991499 6.11991499,5.92249999 6.38374999,5.92249999 Z" id="path-1"></path>
    </defs>
    <g id="Symbols" stroke="none" stroke-width="1" fill="none" fill-rule="evenodd">
        <g id="icon/addservice">
            <g>
                <rect id="Rectangle" fill-rule="nonzero" x="0" y="0" width="38" height="38"></rect>
                <mask id="mask-2" fill="white">
                    <use xlink:href="#path-1"></use>
                </mask>
                <use id="Icon" fill="#333333" fill-rule="nonzero" xlink:href="#path-1"></use>
            </g>
        </g>
    </g>
</svg>