<?xml version="1.0" encoding="UTF-8"?>
<svg width="38px" height="38px" viewBox="0 0 38 38" version="1.1" xmlns="http://www.w3.org/2000/svg" xmlns:xlink="http://www.w3.org/1999/xlink">
    <!-- Generator: sketchtool 52.6 (67491) - http://www.bohemiancoding.com/sketch -->
    <title>A7C7AF23-D624-49AC-A853-941AAD3EC8DB</title>
    <desc>Created with sketchtool.</desc>
    <g id="Symbols" stroke="none" stroke-width="1" fill="none" fill-rule="evenodd">
        <g id="icon/howto" fill-rule="nonzero">
            <g transform="translate(6.000000, 3.000000)" fill="#333333">
                <path d="M6.2,4.00012 C6.2,4.2210339 6.0209139,4.40012 5.8,4.40012 C5.5790861,4.40012 5.4,4.2210339 5.4,4.00012 L5.4,1.00012 C5.4,0.7792061 5.5790861,0.60012 5.8,0.60012 C6.0209139,0.60012 6.2,0.7792061 6.2,1.00012 L6.2,4.00012 Z" id="Stroke-1704"></path>
                <path d="M12.2,4.00012 C12.2,4.2210339 12.0209139,4.40012 11.8,4.40012 C11.5790861,4.40012 11.4,4.2210339 11.4,4.00012 L11.4,1.00012 C11.4,0.7792061 11.5790861,0.60012 11.8,0.60012 C12.0209139,0.60012 12.2,0.7792061 12.2,1.00012 L12.2,4.00012 Z" id="Stroke-1708"></path>
                <path d="M18.2,4.00012 C18.2,4.2210339 18.0209139,4.40012 17.8,4.40012 C17.5790861,4.40012 17.4,4.2210339 17.4,4.00012 L17.4,1.00012 C17.4,0.7792061 17.5790861,0.60012 17.8,0.60012 C18.0209139,0.60012 18.2,0.7792061 18.2,1.00012 L18.2,4.00012 Z" id="Stroke-1712"></path>
                <path d="M23.9671573,3.53296271 C23.8109476,3.376753 23.8109476,3.123487 23.9671573,2.96727729 C24.123367,2.81106757 24.376633,2.81106757 24.5328427,2.96727729 L29.0328427,7.46727729 C29.1890524,7.623487 29.1890524,7.876753 29.0328427,8.03296271 C28.876633,8.18917243 28.623367,8.18917243 28.4671573,8.03296271 L23.9671573,3.53296271 Z" id="Stroke-1714"></path>
                <path d="M9,19.5 C8.72385763,19.5 8.5,19.2761424 8.5,19 C8.5,18.7238576 8.72385763,18.5 9,18.5 L10.8214286,18.5 C11.0251338,18.5 11.2084733,18.6235797 11.284902,18.8124036 L11.8306159,20.160638 L12.9056036,20.824601 C12.9961047,20.8804988 13.0664205,20.9638024 13.1063305,21.0624036 L13.7134734,22.5624036 C13.81708,22.8183729 13.6935657,23.1098668 13.4375964,23.2134734 C13.1816271,23.31708 12.8901332,23.1935657 12.7865266,22.9375964 L12.2408127,21.589362 L11.165825,20.925399 C11.0753239,20.8695012 11.005008,20.7861976 10.965098,20.6875964 L10.4844042,19.5 L9,19.5 Z" id="Stroke-1716"></path>
                <path d="M7.24644661,24.1536734 C7.05118446,23.9584112 7.05118446,23.6418288 7.24644661,23.4465666 C7.44170876,23.2513045 7.75829124,23.2513045 7.95355339,23.4465666 L8.55355339,24.0465666 C8.74881554,24.2418288 8.74881554,24.5584112 8.55355339,24.7536734 C8.35829124,24.9489355 8.04170876,24.9489355 7.84644661,24.7536734 L7.24644661,24.1536734 Z" id="Stroke-1718"></path>
                <path d="M26.2171573,5.71715729 C26.373367,5.56094757 26.626633,5.56094757 26.7828427,5.71715729 C26.9390524,5.873367 26.9390524,6.126633 26.7828427,6.28284271 L12.2828427,20.7828427 C12.126633,20.9390524 11.873367,20.9390524 11.7171573,20.7828427 C11.5609476,20.626633 11.5609476,20.373367 11.7171573,20.2171573 L26.2171573,5.71715729 Z" id="Stroke-1720"></path>
                <path d="M23,4.7536 C23,4.9745139 22.8209139,5.1536 22.6,5.1536 C22.3790861,5.1536 22.2,4.9745139 22.2,4.7536 L22.2,2.8 C22.2,2.0273139 21.5726861,1.4 20.8,1.4 L2.8,1.4 C2.0273139,1.4 1.4,2.0273139 1.4,2.8 L1.4,29.2 C1.4,29.9726861 2.0273139,30.6 2.8,30.6 L20.8,30.6 C21.5726861,30.6 22.2,29.9726861 22.2,29.2 L22.2,13.9924 C22.2,13.7714861 22.3790861,13.5924 22.6,13.5924 C22.8209139,13.5924 23,13.7714861 23,13.9924 L23,29.2 C23,30.4145139 22.0145139,31.4 20.8,31.4 L2.8,31.4 C1.5854861,31.4 0.6,30.4145139 0.6,29.2 L0.6,2.8 C0.6,1.5854861 1.5854861,0.6 2.8,0.6 L20.8,0.6 C22.0145139,0.6 23,1.5854861 23,2.8 L23,4.7536 Z" id="Stroke-1722"></path>
                <path d="M13.7812002,23.2844757 L13.6485563,23.3713907 L6.14855627,26.3713907 C5.82203149,26.5020006 5.49799941,26.1779685 5.62860932,25.8514437 L8.62860932,18.3514437 L8.71552426,18.2187998 L24.3763742,2.37554104 C24.8710726,1.88229758 25.5383214,1.6 26.25,1.6 C26.9616786,1.6 27.6289274,1.88229758 28.1240427,2.37595729 L29.624459,3.87637415 C30.1177024,4.3710726 30.4,5.03832143 30.4,5.75 C30.4,6.46167857 30.1177024,7.1289274 29.6224002,7.62567574 L13.7812002,23.2844757 Z M29.057941,7.05877415 C29.4033117,6.7123847 29.6,6.24748507 29.6,5.75 C29.6,5.25251493 29.4033117,4.7876153 29.0583573,4.44164271 L27.5587742,2.94205896 C27.2123847,2.59668831 26.7474851,2.4 26.25,2.4 C25.7525149,2.4 25.2876153,2.59668831 24.9432757,2.9400002 L9.34134631,18.7236672 L6.71802197,25.281978 L13.2763329,22.6586536 L29.057941,7.05877415 Z" id="Stroke-1726"></path>
            </g>
            <rect id="Rectangle" x="0" y="0" width="38" height="38"></rect>
        </g>
    </g>
</svg>