<?xml version="1.0" encoding="UTF-8"?>
<svg width="38px" height="38px" viewBox="0 0 38 38" version="1.1" xmlns="http://www.w3.org/2000/svg" xmlns:xlink="http://www.w3.org/1999/xlink">
    <!-- Generator: sketchtool 52.6 (67491) - http://www.bohemiancoding.com/sketch -->
    <title>39FFFF82-75F7-4889-931C-67AF965DB603</title>
    <desc>Created with sketchtool.</desc>
    <g id="Symbols" stroke="none" stroke-width="1" fill="none" fill-rule="evenodd">
        <g id="icon/coservice" fill-rule="nonzero">
            <g>
                <rect id="Rectangle" x="0" y="0" width="38" height="38"></rect>
                <path d="M20,16.862069 L28.5862069,16.862069 C29.7474527,16.862069 30.6896552,17.8042714 30.6896552,18.9655172 L30.6896552,20.6266856 C33.3877588,20.8787255 35.5,23.1498875 35.5,25.9137931 C35.5,28.8463148 33.1221769,31.2241379 30.1896552,31.2241379 C27.2571335,31.2241379 24.8793103,28.8463148 24.8793103,25.9137931 C24.8793103,23.1498875 26.9915515,20.8787255 29.6896552,20.6266856 L29.6896552,18.9655172 C29.6896552,18.3565562 29.195168,17.862069 28.5862069,17.862069 L10.4137931,17.862069 C9.80483203,17.862069 9.31034483,18.3565562 9.31034483,18.9655172 L9.31034483,20.6266856 C12.0084485,20.8787255 14.1206897,23.1498875 14.1206897,25.9137931 C14.1206897,28.8463148 11.7428665,31.2241379 8.81034483,31.2241379 C5.87782314,31.2241379 3.5,28.8463148 3.5,25.9137931 C3.5,23.1498875 5.61224115,20.8787255 8.31034483,20.6266856 L8.31034483,18.9655172 C8.31034483,17.8042714 9.25254728,16.862069 10.4137931,16.862069 L19,16.862069 L19,14.0974523 C16.3018963,13.8454125 14.1896552,11.5742504 14.1896552,8.81034483 C14.1896552,5.87782314 16.5674783,3.5 19.5,3.5 C22.4325217,3.5 24.8103448,5.87782314 24.8103448,8.81034483 C24.8103448,11.5742504 22.6981037,13.8454125 20,14.0974523 L20,16.862069 Z M23.8103448,8.81034483 C23.8103448,6.43010789 21.8802369,4.5 19.5,4.5 C17.1197631,4.5 15.1896552,6.43010789 15.1896552,8.81034483 C15.1896552,11.1905818 17.1197631,13.1206897 19.5,13.1206897 C21.8802369,13.1206897 23.8103448,11.1905818 23.8103448,8.81034483 Z M13.1206897,25.9137931 C13.1206897,23.5335562 11.1905818,21.6034483 8.81034483,21.6034483 C6.43010789,21.6034483 4.5,23.5335562 4.5,25.9137931 C4.5,28.29403 6.43010789,30.2241379 8.81034483,30.2241379 C11.1905818,30.2241379 13.1206897,28.29403 13.1206897,25.9137931 Z M34.5,25.9137931 C34.5,23.5335562 32.5698921,21.6034483 30.1896552,21.6034483 C27.8094182,21.6034483 25.8793103,23.5335562 25.8793103,25.9137931 C25.8793103,28.29403 27.8094182,30.2241379 30.1896552,30.2241379 C32.5698921,30.2241379 34.5,28.29403 34.5,25.9137931 Z" id="Combined-Shape" fill="#333333"></path>
            </g>
        </g>
    </g>
</svg>