<?xml version="1.0" encoding="UTF-8"?>
<svg width="38px" height="38px" viewBox="0 0 38 38" version="1.1" xmlns="http://www.w3.org/2000/svg" xmlns:xlink="http://www.w3.org/1999/xlink">
    <!-- Generator: sketchtool 52.6 (67491) - http://www.bohemiancoding.com/sketch -->
    <title>D430C15A-E062-46C2-8DA5-E6C6345F5D8D</title>
    <desc>Created with sketchtool.</desc>
    <g id="Symbols" stroke="none" stroke-width="1" fill="none" fill-rule="evenodd">
        <g id="icon/place" fill-rule="nonzero">
            <g>
                <rect id="Rectangle" x="0" y="0" width="38" height="38"></rect>
                <path d="M7.1,5 L30.0069905,5 C31.11156,5 32.0069905,5.8954305 32.0069905,7 C32.0069905,7.35397744 31.9130436,7.70161343 31.7347441,8.00740633 L27.9490885,14.5 L31.7347441,20.9925937 C31.9130436,21.2983866 32.0069905,21.6460226 32.0069905,22 C32.0069905,23.1045695 31.11156,24 30.0069905,24 L7.1,24 L7.1,35.45 C7.1,35.7537566 6.85375661,36 6.55,36 C6.24624339,36 6,35.7537566 6,35.45 L6,3.55 C6,3.24624339 6.24624339,3 6.55,3 C6.85375661,3 7.1,3.24624339 7.1,3.55 L7.1,5 Z M7.1,6 L7.1,23 L30.0069905,23 C30.5592752,23 31.0069905,22.5522847 31.0069905,22 C31.0069905,21.8230113 30.9600171,21.6491933 30.8708673,21.4962968 L26.7915161,14.5 L30.8708673,7.50370316 C30.9600171,7.35080671 31.0069905,7.17698872 31.0069905,7 C31.0069905,6.44771525 30.5592752,6 30.0069905,6 L7.1,6 Z" fill="#333333"></path>
            </g>
        </g>
    </g>
</svg>