<?xml version="1.0" encoding="UTF-8"?>
<svg width="38px" height="38px" viewBox="0 0 38 38" version="1.1" xmlns="http://www.w3.org/2000/svg" xmlns:xlink="http://www.w3.org/1999/xlink">
    <!-- Generator: sketchtool 52.6 (67491) - http://www.bohemiancoding.com/sketch -->
    <title>3C76020E-07AA-48E4-AFAE-9C95FC32045F</title>
    <desc>Created with sketchtool.</desc>
    <g id="Symbols" stroke="none" stroke-width="1" fill="none" fill-rule="evenodd">
        <g id="icon/faq" fill-rule="nonzero">
            <g>
                <rect id="Rectangle" x="0" y="0" width="38" height="38"></rect>
                <path d="M9.91592731,28.5001593 L2.86967132,34.8643099 C2.54874097,35.1541729 2,34.9488801 2,34.5389519 L2,9.08485527 C2,7.93388414 3.03397722,7 4.30830867,7 L30.6916913,7 C31.9660228,7 33,7.93388414 33,9.08485527 L33,26.415304 C33,27.5662751 31.9660228,28.5001593 30.6916913,28.5001593 L9.91592731,28.5001593 Z M3.01888333,33.4281102 L9.34468001,27.7146756 C9.44021885,27.6283853 9.56979734,27.5799079 9.70490967,27.5799079 L30.6916913,27.5799079 C31.4033091,27.5799079 31.9811167,27.0580343 31.9811167,26.415304 L31.9811167,9.08485527 C31.9811167,8.44212495 31.4033091,7.9202514 30.6916913,7.9202514 L4.30830867,7.9202514 C3.59669094,7.9202514 3.01888333,8.44212495 3.01888333,9.08485527 L3.01888333,33.4281102 Z M17.0830404,20.1408052 C16.7110404,17.4030274 19.4700404,16.4074718 19.4700404,14.4941385 C19.4700404,13.5452496 18.8965404,12.7363607 17.7340404,12.7363607 C16.9590404,12.7363607 16.2305404,13.1252496 15.6880404,13.7474718 L14.9595404,13.0785829 C15.6725404,12.2852496 16.6335404,11.6785829 17.8735404,11.6785829 C19.6095404,11.6785829 20.7100404,12.7674718 20.7100404,14.4163607 C20.7100404,16.7185829 17.9045404,17.6674718 18.1990404,20.1408052 L17.0830404,20.1408052 Z M17.6875404,23.7030274 C17.1605404,23.7030274 16.7265404,23.2985829 16.7265404,22.7074718 C16.7265404,22.0852496 17.1605404,21.6808052 17.6875404,21.6808052 C18.1990404,21.6808052 18.6330404,22.0852496 18.6330404,22.7074718 C18.6330404,23.2985829 18.1990404,23.7030274 17.6875404,23.7030274 Z" id="Combined-Shape" fill="#333333"></path>
            </g>
        </g>
    </g>
</svg>