<?xml version="1.0" encoding="UTF-8"?>
<svg width="24px" height="24px" viewBox="0 0 24 24" version="1.1" xmlns="http://www.w3.org/2000/svg" xmlns:xlink="http://www.w3.org/1999/xlink">
    <!-- Generator: sketchtool 52.6 (67491) - http://www.bohemiancoding.com/sketch -->
    <title>1D3629ED-E3EE-4F56-8CA2-1D2E0987EF58</title>
    <desc>Created with sketchtool.</desc>
    <g id="main-2019" stroke="none" stroke-width="1" fill="none" fill-rule="evenodd">
        <g id="1.메인" transform="translate(-1148.000000, -89.000000)" fill="#666666">
            <g id="header" transform="translate(0.000000, 14.000000)">
                <g id="검색창" transform="translate(730.000000, 63.000000)">
                    <g id="icon/search_24" transform="translate(418.000000, 12.000000)">
                        <g id="icon/search">
                            <g>
                                <path d="M3.97142917,17.4535476 C0.138994886,13.7047839 0.137359656,7.62864924 3.96815871,3.88201969 C7.79895776,0.134856575 14.0111969,0.136457243 17.8430861,3.88468747 C21.6755204,7.63345124 21.6771556,13.7090523 17.8463566,17.456749 C14.0161026,21.2033785 7.80386345,21.2017779 3.97142917,17.4535476 M19.5709793,17.9668284 C19.4303495,17.829171 19.2521094,17.7534061 19.0684185,17.7320638 C22.8605172,13.5425829 22.7177071,7.13884492 18.61655,3.12757164 C14.3567755,-1.04110064 7.45065375,-1.0427013 3.19251456,3.12383675 C-1.06562462,7.28984124 -1.06398939,14.0457261 3.1963301,18.2138648 C7.2974872,22.2256717 13.8433133,22.3654633 18.1259809,18.6540484 C18.147784,18.8338568 18.2251849,19.007796 18.3663598,19.145987 L22.5454628,23.2340923 C22.8785047,23.5595614 23.4181306,23.5595614 23.7506274,23.2346259 C24.0831242,22.9091568 24.0831242,22.3809364 23.7506274,22.0554673 L19.5709793,17.9668284 Z" id="Fill-1"></path>
                            </g>
                        </g>
                    </g>
                </g>
            </g>
        </g>
    </g>
</svg>