<?xml version="1.0" encoding="UTF-8"?>
<svg width="32px" height="32px" viewBox="0 0 32 32" version="1.1" xmlns="http://www.w3.org/2000/svg" xmlns:xlink="http://www.w3.org/1999/xlink">
    <!-- Generator: sketchtool 52.6 (67491) - http://www.bohemiancoding.com/sketch -->
    <title>878DC957-B9CD-4FE0-99A7-7BAE656EF7F7</title>
    <desc>Created with sketchtool.</desc>
    <defs>
        <polygon id="path-1" points="0 0.588 21.4897333 0.588 21.4897333 18.6666667 0 18.6666667"></polygon>
    </defs>
    <g id="Symbols" stroke="none" stroke-width="1" fill="none" fill-rule="evenodd">
        <g id="icon/blog">
            <g>
                <circle id="Oval" fill="#32B24A" fill-rule="nonzero" cx="16" cy="16" r="16"></circle>
                <g id="Group-12" transform="translate(5.000000, 7.000000)">
                    <g id="Group-3" transform="translate(0.000000, 0.078800)">
                        <mask id="mask-2" fill="white">
                            <use xlink:href="#path-1"></use>
                        </mask>
                        <g id="Clip-2"></g>
                        <path d="M18.0944,0.587533333 L3.39306667,0.587533333 C1.51706667,0.587533333 -0.000266666667,2.11553333 -0.000266666667,3.99486667 L-0.000266666667,12.0762 C-0.000266666667,13.9568667 1.51706667,15.4815333 3.39306667,15.4815333 L8.45773333,15.4815333 L10.1864,18.2935333 C10.1864,18.2935333 10.2044,18.3288667 10.2410667,18.3755333 C10.3430667,18.5482 10.5290667,18.6668667 10.7450667,18.6668667 C10.9584,18.6668667 11.1424,18.5482 11.2444,18.3788667 C11.2884,18.3288667 11.3030667,18.2935333 11.3030667,18.2935333 L13.0297333,15.4815333 L18.0944,15.4815333 C19.9690667,15.4815333 21.4897333,13.9568667 21.4897333,12.0762 L21.4897333,3.99486667 C21.4897333,2.11553333 19.9690667,0.587533333 18.0944,0.587533333" id="Fill-1" fill="#FEFEFE" mask="url(#mask-2)"></path>
                    </g>
                    <path d="M4.4824,9.47946667 C4.01506667,9.47946667 3.63773333,9.10213333 3.63773333,8.63546667 C3.63773333,8.16746667 4.01506667,7.7908 4.4824,7.7908 C4.94906667,7.7908 5.32773333,8.16746667 5.32773333,8.63546667 C5.32773333,9.10213333 4.94906667,9.47946667 4.4824,9.47946667 M4.77306667,6.58813333 C4.77306667,6.58813333 4.18573333,6.58813333 3.6524,7.10813333 L3.6524,5.02146667 L2.33906667,5.02146667 L2.33906667,10.5008 L3.66706667,10.5008 L3.66706667,10.0721333 C3.66706667,10.0721333 3.98106667,10.6394667 4.77306667,10.6394667 C4.77306667,10.6394667 6.62573333,10.5694667 6.62573333,8.59013333 C6.62573333,8.59013333 6.55773333,6.58813333 4.77306667,6.58813333" id="Fill-4" fill="#F17528"></path>
                    <path d="M7.0498,4.8942 L7.0498,6.16553333 C7.0498,6.16553333 7.64846667,6.1382 7.64846667,7.2582 L7.64846667,10.5008667 L8.91713333,10.5008667 L8.91713333,6.95753333 C8.91713333,6.95753333 8.97246667,4.8942 7.0498,4.8942" id="Fill-6" fill="#F17528"></path>
                    <path d="M12.0185333,9.47946667 C11.5505333,9.47946667 11.1732,9.10213333 11.1732,8.63546667 C11.1732,8.16746667 11.5505333,7.7908 12.0185333,7.7908 C12.4852,7.7908 12.8632,8.16746667 12.8632,8.63546667 C12.8632,9.10213333 12.4852,9.47946667 12.0185333,9.47946667 M12.0178667,6.6068 C12.0178667,6.6068 9.8432,6.6068 9.8432,8.63546667 C9.8432,8.63546667 9.77386667,10.6394667 12.0178667,10.6394667 C12.0178667,10.6394667 14.2418667,10.6354667 14.2418667,8.63546667 C14.2418667,8.63546667 14.3152,6.6068 12.0178667,6.6068" id="Fill-8" fill="#F17528"></path>
                    <path d="M17.0856,9.47946667 C16.6189333,9.47946667 16.2396,9.10213333 16.2396,8.63546667 C16.2396,8.16746667 16.6189333,7.7908 17.0856,7.7908 C17.5529333,7.7908 17.9302667,8.16746667 17.9302667,8.63546667 C17.9302667,9.10213333 17.5529333,9.47946667 17.0856,9.47946667 Z M17.8716,6.73546667 L17.8716,7.10813333 C17.8716,7.10813333 17.4936,6.6068 16.7662667,6.6068 C16.7662667,6.6068 14.9062667,6.52613333 14.9062667,8.62146667 C14.9062667,8.62146667 14.8862667,10.5741333 16.7156,10.5741333 C16.7156,10.5741333 17.4609333,10.6028 17.8716,10.0721333 L17.8716,10.3788 C17.8716,10.3788 17.9649333,11.3408 17.0336,11.3408 L16.7156,11.3408 L16.7156,12.5054667 L17.2282667,12.5054667 C17.2282667,12.5054667 19.1509333,12.5261333 19.1509333,10.4514667 L19.1509333,6.73546667 L17.8716,6.73546667 Z" id="Fill-10" fill="#F17528"></path>
                </g>
            </g>
        </g>
    </g>
</svg>