<svg xmlns="http://www.w3.org/2000/svg" width="23" height="8" viewBox="0 0 23 8">
    <path fill="#4195F5" fill-rule="nonzero" d="M.91 8V.6h1.51l2.15 3.94.74 1.6h.05c-.08-.77-.19-1.75-.19-2.59V.6h1.4V8h-1.5L2.93 4.04l-.75-1.59h-.05c.07.8.18 1.73.18 2.58V8H.91zM8.4 8V.6h4.54v1.23H9.88v1.71h2.6v1.24h-2.6v1.98h3.17V8H8.4zm6.85 0L13.82.6h1.51l.59 3.61c.11.78.23 1.57.34 2.36h.04c.15-.79.31-1.59.47-2.36L17.63.6h1.26l.86 3.61c.16.76.31 1.56.47 2.36h.05c.11-.8.22-1.59.33-2.36L21.18.6h1.41L21.22 8h-1.84l-.83-3.66c-.12-.58-.23-1.15-.32-1.71h-.04c-.1.56-.2 1.13-.32 1.71L17.06 8h-1.81z"/>
</svg>
