<?xml version="1.0" encoding="UTF-8"?>
<svg width="36px" height="36px" viewBox="0 0 36 36" version="1.1" xmlns="http://www.w3.org/2000/svg" xmlns:xlink="http://www.w3.org/1999/xlink">
    <!-- Generator: sketchtool 52.6 (67491) - http://www.bohemiancoding.com/sketch -->
    <title>B66A8DF1-1AD2-4CC7-A149-AEC1AD897125</title>
    <desc>Created with sketchtool.</desc>
    <defs>
        <path d="M22,12.5 C22.277,12.5 22.5,12.723 22.5,13 L22.5,16 C22.5,16.277 22.277,16.5 22,16.5 C21.723,16.5 21.5,16.277 21.5,16 L21.5,13 C21.5,12.723 21.723,12.5 22,12.5 Z M13,12.5 C13.277,12.5 13.5,12.723 13.5,13 L13.5,16 C13.5,16.277 13.277,16.5 13,16.5 C12.723,16.5 12.5,16.277 12.5,16 L12.5,13 C12.5,12.723 12.723,12.5 13,12.5 Z M12,22.5 C11.493,22.5 11.347,23.114 11.685,23.388 C13.303,24.743 15.39,25.5 17.5,25.5 C19.61,25.5 21.703,24.742 23.32,23.388 C23.804,22.984 23.17,22.208 22.68,22.621 C21.246,23.821 19.373,24.501 17.504,24.501 C15.634,24.501 13.76,23.821 12.328,22.621 C12.238,22.545 12.118,22.501 12,22.501 L12,22.5 Z M17.5,2.5 C9.222,2.5 2.5,9.222 2.5,17.5 C2.5,25.778 9.222,32.5 17.5,32.5 C25.778,32.5 32.5,25.778 32.5,17.5 C32.5,9.222 25.778,2.5 17.5,2.5 Z M17.5,3.5 C25.238,3.5 31.5,9.762 31.5,17.5 C31.5,25.238 25.238,31.5 17.5,31.5 C9.762,31.5 3.5,25.238 3.5,17.5 C3.5,9.762 9.762,3.5 17.5,3.5 Z" id="path-1"></path>
    </defs>
    <g id="Symbols" stroke="none" stroke-width="1" fill="none" fill-rule="evenodd">
        <g id="icon/mypage_black">
            <g transform="translate(0.500000, 0.500000)">
                <rect id="Rectangle" fill-rule="nonzero" x="0" y="0" width="35" height="35"></rect>
                <mask id="mask-2" fill="white">
                    <use xlink:href="#path-1"></use>
                </mask>
                <use id="Icon" fill="#000000" fill-rule="nonzero" xlink:href="#path-1"></use>
            </g>
        </g>
    </g>
</svg>