<?xml version="1.0" encoding="UTF-8"?>
<svg width="32px" height="32px" viewBox="0 0 32 32" version="1.1" xmlns="http://www.w3.org/2000/svg" xmlns:xlink="http://www.w3.org/1999/xlink">
    <!-- Generator: sketchtool 52.6 (67491) - http://www.bohemiancoding.com/sketch -->
    <title>7B0AA89B-AEFC-4CA3-916C-56A372478729</title>
    <desc>Created with sketchtool.</desc>
    <g id="Symbols" stroke="none" stroke-width="1" fill="none" fill-rule="evenodd">
        <g id="icon/youtube">
            <g>
                <path d="M0,16 C0,7.16344357 7.16344357,0 16,0 C24.8365564,0 32,7.16344357 32,16 C32,24.8365564 24.8365564,32 16,32 C7.16344357,32 0,24.8365564 0,16 Z" id="back" fill="#CE1312"></path>
                <path d="M24.3626667,12.7793842 C24.3626667,12.7793842 24.1957333,11.5776247 23.6842667,11.0484146 C23.0352,10.3535196 22.3077333,10.3502496 21.9744,10.3099184 C19.5861333,10.1333333 16.0037333,10.1333333 16.0037333,10.1333333 L15.9962667,10.1333333 C15.9962667,10.1333333 12.4138667,10.1333333 10.0256,10.3099184 C9.69173333,10.3502496 8.9648,10.3535196 8.3152,11.0484146 C7.80373333,11.5776247 7.63733333,12.7793842 7.63733333,12.7793842 C7.63733333,12.7793842 7.46666667,14.1909747 7.46666667,15.6020201 L7.46666667,16.925318 C7.46666667,18.3369085 7.63733333,19.747954 7.63733333,19.747954 C7.63733333,19.747954 7.80373333,20.9497134 8.3152,21.4789236 C8.9648,22.1738185 9.8176,22.1520179 10.1973333,22.224505 C11.5626667,22.3585788 16,22.4 16,22.4 C16,22.4 19.5861333,22.3945498 21.9744,22.2179648 C22.3077333,22.1770886 23.0352,22.1738185 23.6842667,21.4789236 C24.1957333,20.9497134 24.3626667,19.747954 24.3626667,19.747954 C24.3626667,19.747954 24.5333333,18.3369085 24.5333333,16.925318 L24.5333333,15.6020201 C24.5333333,14.1909747 24.3626667,12.7793842 24.3626667,12.7793842 L24.3626667,12.7793842 Z" id="Youtube" fill="#FFFFFF"></path>
                <polygon id="Path" fill="#CE1312" points="14.2378667 18.528754 14.2373333 13.6285185 18.8485333 16.087084"></polygon>
            </g>
        </g>
    </g>
</svg>