<?xml version="1.0" encoding="utf-8"?>
<!-- Generator: Adobe Illustrator 22.0.1, SVG Export Plug-In . SVG Version: 6.00 Build 0)  -->
<svg version="1.1" id="레이어_1" xmlns="http://www.w3.org/2000/svg" xmlns:xlink="http://www.w3.org/1999/xlink" x="0px"
	 y="0px" viewBox="0 0 64.5 27.5" style="enable-background:new 0 0 64.5 27.5;" xml:space="preserve">
<style type="text/css">
	.st0{fill:#C40F39;}
	.st1{fill:#FFFFFF;}
	.st2{fill:#FFFFFF;stroke:#C40F39;stroke-miterlimit:10;}
</style>
<path class="st0" d="M57.8,26.5H7c-3.3,0-6-2.7-6-6V6.8c0-3.3,2.7-6,6-6h50.8c3.3,0,6,2.7,6,6v13.7C63.8,23.8,61.1,26.5,57.8,26.5z"
	/>
<g>
	<g>
		<rect x="9.7" y="16.8" class="st1" width="2.5" height="1.3"/>
		<polygon class="st1" points="14.1,15.6 16.1,17.5 13.5,18.1 		"/>
		<polygon class="st1" points="21.7,11.9 16.7,16.9 14.7,14.9 19.7,9.8 		"/>
		<path class="st1" d="M18,17.5V20H7.8V7.4h4.7c2.6,0,1.7,3.8,1.7,3.8s1.5-0.4,2.6-0.1L18,9.8c-1.4-1.8-3.6-3.7-5-3.7H6.6v15.2h12.7
			v-5L18,17.5z"/>
	</g>
	<g>
		<path class="st1" d="M26.7,17.3v-2.7h-2.7v-4.3h6.7v4.3H28v2.7H31v1.1h-7.4v-1.1H26.7z M25.3,13.5h4v-1.9h-4V13.5z"/>
		<path class="st1" d="M34.5,10.4c0.2,0,0.5,0,0.7,0.1c0.2,0.1,0.4,0.2,0.5,0.4c0.2,0.2,0.3,0.3,0.4,0.5c0.1,0.2,0.1,0.4,0.1,0.7V13
			c0,0.2,0,0.5-0.1,0.7c-0.1,0.2-0.2,0.4-0.4,0.5c-0.2,0.2-0.3,0.3-0.5,0.4c-0.2,0.1-0.4,0.1-0.7,0.1h-0.7c-0.2,0-0.5,0-0.7-0.1
			c-0.2-0.1-0.4-0.2-0.5-0.4c-0.2-0.2-0.3-0.3-0.4-0.5c-0.1-0.2-0.1-0.4-0.1-0.7V12c0-0.2,0-0.5,0.1-0.7c0.1-0.2,0.2-0.4,0.4-0.5
			c0.2-0.2,0.3-0.3,0.5-0.4c0.2-0.1,0.4-0.1,0.7-0.1H34.5z M32.4,15.4h5.3v-5.1H39v8.1h-6.5V15.4z M35,12.3c0-0.2-0.1-0.4-0.2-0.5
			c-0.1-0.1-0.3-0.2-0.5-0.2H34c-0.2,0-0.4,0.1-0.5,0.2c-0.1,0.1-0.2,0.3-0.2,0.5v0.5c0,0.2,0.1,0.4,0.2,0.5
			c0.1,0.1,0.3,0.2,0.5,0.2h0.3c0.2,0,0.4-0.1,0.5-0.2c0.1-0.1,0.2-0.3,0.2-0.5V12.3z M33.7,17.4h4.1v-1h-4.1V17.4z"/>
		<path class="st1" d="M45,11.5h-2.2v-1.2h3.5v1.2l-1,6.9H44L45,11.5z M47,18.5v-8.1h1.2v2.8h0.8v-2.8h1.2v8.1h-1.2v-4.1h-0.8v4.1
			H47z"/>
		<path class="st1" d="M54.2,10.4l1.7,3.9h-1.4l-1-2.5l-1,2.5h-1.4l1.7-3.9H54.2z M57.1,14.7v-1.9h-1.1v-1.1h1.1v-1.4h1.2V17h-5.3
			v0.5h5.3v1h-6.5v-2.4H57v-0.4h-5.3v-1H57.1z"/>
	</g>
</g>
<path class="st2" d="M197.1,22.7h-50.8c-3.3,0-6-2.7-6-6V3c0-3.3,2.7-6,6-6h50.8c3.3,0,6,2.7,6,6v13.7
	C203.1,20,200.4,22.7,197.1,22.7z"/>
<g>
	<g>
		<rect x="149" y="13" class="st0" width="2.5" height="1.3"/>
		<polygon class="st0" points="153.4,11.7 155.3,13.7 152.7,14.3 		"/>
		<polygon class="st0" points="161,8 156,13.1 154,11 159,6 		"/>
		<path class="st0" d="M157.2,13.7v2.5h-10.1V3.5h4.7c2.6,0,1.7,3.8,1.7,3.8s1.5-0.4,2.6-0.1l1.2-1.3c-1.4-1.8-3.6-3.7-5-3.7h-6.4
			v15.2h12.7v-5L157.2,13.7z"/>
	</g>
	<g>
		<path class="st0" d="M165.9,13.5v-2.7h-2.7V6.5h6.7v4.3h-2.7v2.7h3.1v1.1h-7.4v-1.1H165.9z M164.5,9.6h4V7.7h-4V9.6z"/>
		<path class="st0" d="M173.7,6.5c0.2,0,0.5,0,0.7,0.1c0.2,0.1,0.4,0.2,0.5,0.4c0.2,0.2,0.3,0.3,0.4,0.5c0.1,0.2,0.1,0.4,0.1,0.7
			v0.9c0,0.2,0,0.5-0.1,0.7c-0.1,0.2-0.2,0.4-0.4,0.5c-0.2,0.2-0.3,0.3-0.5,0.4c-0.2,0.1-0.4,0.1-0.7,0.1H173c-0.2,0-0.5,0-0.7-0.1
			c-0.2-0.1-0.4-0.2-0.5-0.4c-0.2-0.2-0.3-0.3-0.4-0.5c-0.1-0.2-0.1-0.4-0.1-0.7V8.2c0-0.2,0-0.5,0.1-0.7c0.1-0.2,0.2-0.4,0.4-0.5
			c0.2-0.2,0.3-0.3,0.5-0.4c0.2-0.1,0.4-0.1,0.7-0.1H173.7z M171.7,11.6h5.3V6.5h1.2v8.1h-6.5V11.6z M174.2,8.4
			c0-0.2-0.1-0.4-0.2-0.5c-0.1-0.1-0.3-0.2-0.5-0.2h-0.3c-0.2,0-0.4,0.1-0.5,0.2c-0.1,0.1-0.2,0.3-0.2,0.5v0.5
			c0,0.2,0.1,0.4,0.2,0.5c0.1,0.1,0.3,0.2,0.5,0.2h0.3c0.2,0,0.4-0.1,0.5-0.2c0.1-0.1,0.2-0.3,0.2-0.5V8.4z M172.9,13.6h4.1v-1h-4.1
			V13.6z"/>
		<path class="st0" d="M184.2,7.7h-2.2V6.5h3.5v1.2l-1,6.9h-1.3L184.2,7.7z M186.2,14.6V6.5h1.2v2.8h0.8V6.5h1.2v8.1h-1.2v-4.1h-0.8
			v4.1H186.2z"/>
		<path class="st0" d="M193.5,6.5l1.7,3.9h-1.4l-1-2.5l-1,2.5h-1.4l1.7-3.9H193.5z M196.3,10.8V9h-1.1V7.9h1.1V6.5h1.2v6.7h-5.3v0.5
			h5.3v1H191v-2.4h5.3v-0.4H191v-1H196.3z"/>
	</g>
</g>
</svg>
