<?xml version="1.0" encoding="utf-8"?>
<!-- Generator: Adobe Illustrator 22.0.1, SVG Export Plug-In . SVG Version: 6.00 Build 0)  -->
<svg version="1.1" id="레이어_1" xmlns="http://www.w3.org/2000/svg" xmlns:xlink="http://www.w3.org/1999/xlink" x="0px"
	 y="0px" viewBox="0 0 64.5 27.5" style="enable-background:new 0 0 64.5 27.5;" xml:space="preserve">
<style type="text/css">
	.st0{fill:#FFFFFF;stroke:#C40F39;stroke-miterlimit:10;}
	.st1{fill:#C40F39;}
</style>
<path class="st0" d="M57.7,26.5H6.9c-3.3,0-6-2.7-6-6V6.8c0-3.3,2.7-6,6-6h50.8c3.3,0,6,2.7,6,6v13.7C63.7,23.8,61,26.5,57.7,26.5z"
	/>
<g>
	<g>
		<rect x="9.6" y="16.8" class="st1" width="2.5" height="1.3"/>
		<polygon class="st1" points="14,15.5 16,17.5 13.4,18.1 		"/>
		<polygon class="st1" points="21.6,11.8 16.6,16.9 14.6,14.8 19.6,9.8 		"/>
		<path class="st1" d="M17.8,17.5V20H7.7V7.3h4.7c2.6,0,1.7,3.8,1.7,3.8s1.5-0.4,2.6-0.1l1.2-1.3C16.4,8,14.2,6,12.9,6H6.4v15.2
			h12.7v-5L17.8,17.5z"/>
	</g>
	<g>
		<path class="st1" d="M26.5,17.3v-2.7h-2.7v-4.3h6.7v4.3h-2.7v2.7h3.1v1.1h-7.4v-1.1H26.5z M25.2,13.4h4v-1.9h-4V13.4z"/>
		<path class="st1" d="M34.4,10.3c0.2,0,0.5,0,0.7,0.1c0.2,0.1,0.4,0.2,0.5,0.4c0.2,0.2,0.3,0.3,0.4,0.5c0.1,0.2,0.1,0.4,0.1,0.7
			v0.9c0,0.2,0,0.5-0.1,0.7c-0.1,0.2-0.2,0.4-0.4,0.5c-0.2,0.2-0.3,0.3-0.5,0.4c-0.2,0.1-0.4,0.1-0.7,0.1h-0.7c-0.2,0-0.5,0-0.7-0.1
			c-0.2-0.1-0.4-0.2-0.5-0.4c-0.2-0.2-0.3-0.3-0.4-0.5c-0.1-0.2-0.1-0.4-0.1-0.7V12c0-0.2,0-0.5,0.1-0.7c0.1-0.2,0.2-0.4,0.4-0.5
			c0.2-0.2,0.3-0.3,0.5-0.4c0.2-0.1,0.4-0.1,0.7-0.1H34.4z M32.3,15.4h5.3v-5.1h1.2v8.1h-6.5V15.4z M34.9,12.2
			c0-0.2-0.1-0.4-0.2-0.5c-0.1-0.1-0.3-0.2-0.5-0.2h-0.3c-0.2,0-0.4,0.1-0.5,0.2c-0.1,0.1-0.2,0.3-0.2,0.5v0.5
			c0,0.2,0.1,0.4,0.2,0.5c0.1,0.1,0.3,0.2,0.5,0.2h0.3c0.2,0,0.4-0.1,0.5-0.2c0.1-0.1,0.2-0.3,0.2-0.5V12.2z M33.5,17.4h4.1v-1h-4.1
			V17.4z"/>
		<path class="st1" d="M44.9,11.5h-2.2v-1.2h3.5v1.2l-1,6.9h-1.3L44.9,11.5z M46.8,18.4v-8.1H48v2.8h0.8v-2.8H50v8.1h-1.2v-4.1H48
			v4.1H46.8z"/>
		<path class="st1" d="M54.1,10.3l1.7,3.9h-1.4l-1-2.5l-1,2.5H51l1.7-3.9H54.1z M56.9,14.6v-1.9h-1.1v-1.1h1.1v-1.4h1.2V17h-5.3v0.5
			h5.3v1h-6.5V16h5.3v-0.4h-5.3v-1H56.9z"/>
	</g>
</g>
</svg>
