<?xml version="1.0" encoding="UTF-8"?>
<svg width="36px" height="36px" viewBox="0 0 36 36" version="1.1" xmlns="http://www.w3.org/2000/svg" xmlns:xlink="http://www.w3.org/1999/xlink">
    <!-- Generator: sketchtool 52.6 (67491) - http://www.bohemiancoding.com/sketch -->
    <title>A9E61018-DA08-4F69-9F69-0B4D2000CE5A</title>
    <desc>Created with sketchtool.</desc>
    <defs>
        <path d="M11.3792338,14.927175 C11.5950988,15.056325 11.7482338,15.211305 11.8792288,15.340455 L14.6467287,18.0461475 C15.1983837,18.4981725 15.3063162,18.5129325 15.8422887,18.0461475 L16.7629437,17.1734625 C16.8948612,17.0443125 17.0489187,16.8874875 17.2638612,16.761105 C17.4797262,16.6310325 17.7352587,16.56 18.0120087,16.56 C18.2869137,16.56 18.5396787,16.6310325 18.7564662,16.7601825 C18.9704862,16.8874875 19.1254662,17.0424675 19.2573837,17.17254 L22.4787537,20.38284 C22.9104837,20.79243 22.2518187,21.4593975 21.8302362,21.037815 L18.6070212,17.827515 C18.0959562,17.3708775 17.9483562,17.3727225 17.4114612,17.827515 L16.4908062,18.702045 C16.3588887,18.83304 16.2048312,18.98802 15.9898887,19.115325 C15.7721787,19.244475 15.5175687,19.3275 15.2426637,19.3275 C14.9677587,19.3275 14.7131487,19.244475 14.4954387,19.115325 C14.2832637,18.986175 14.1264387,18.83304 13.9954437,18.702045 L11.2279438,15.9963525 C10.7427088,15.5351025 10.4917888,15.5369475 10.0342288,15.9963525 L7.73443629,18.2564775 C7.29809379,18.705735 6.6329713,18.03231 7.0868413,17.6015025 L9.38663378,15.3395325 C9.51578377,15.2103825 9.67076377,15.0554025 9.88478377,14.9262525 C10.1024938,14.7971025 10.3571038,14.7140775 10.6320088,14.7140775 C10.9069138,14.715 11.1615238,14.798025 11.3792338,14.927175 Z M27.6862499,9.69750007 C27.0626399,9.68827507 27.0626399,10.6292251 27.6862499,10.6200001 L30.4537499,10.6200001 C30.7175849,10.6200001 30.9149999,10.8174151 30.9149999,11.0812501 L30.9149999,30.4537499 C30.9149999,30.7175849 30.7175849,30.9149999 30.4537499,30.9149999 L11.0812501,30.9149999 C10.8174151,30.9149999 10.6200001,30.7175849 10.6200001,30.4537499 L10.6200001,27.6862499 C10.6292251,27.0626399 9.68827507,27.0626399 9.69750007,27.6862499 L9.69750007,30.4537499 C9.69750007,31.2120449 10.3229551,31.8374999 11.0812501,31.8374999 L30.4537499,31.8374999 C31.2120449,31.8374999 31.8374999,31.2120449 31.8374999,30.4537499 L31.8374999,11.0812501 C31.8374999,10.3229551 31.2120449,9.69750007 30.4537499,9.69750007 L27.6862499,9.69750007 Z M20.8462501,8.41500009 C19.5778126,8.41500009 18.5400001,9.45281258 18.5400001,10.7212501 C18.5400001,11.9896876 19.5778126,13.0275 20.8462501,13.0275 C22.1146876,13.0275 23.1525,11.9896876 23.1525,10.7212501 C23.1525,9.45281258 22.1146876,8.41500009 20.8462501,8.41500009 Z M20.8462501,9.33750008 C21.6156151,9.33750008 22.2300001,9.95188508 22.2300001,10.7212501 C22.2300001,11.4906151 21.6156151,12.1050001 20.8462501,12.1050001 C20.0768851,12.1050001 19.4625001,11.4906151 19.4625001,10.7212501 C19.4625001,9.95188508 20.0768851,9.33750008 20.8462501,9.33750008 Z M7.39125009,21.69 L23.07375,21.69 C23.3292825,21.69 23.535,21.8957175 23.535,22.15125 C23.535,22.4067825 23.3292825,22.6125 23.07375,22.6125 L7.39125009,22.6125 C7.13571759,22.6125 6.9300001,22.4067825 6.9300001,22.15125 C6.9300001,21.8957175 7.13571759,21.69 7.39125009,21.69 Z M5.54625011,4.16250012 C4.78795512,4.16250012 4.16250012,4.78795512 4.16250012,5.54625011 L4.16250012,24.9187499 C4.16250012,25.6770449 4.78795512,26.3024999 5.54625011,26.3024999 L24.9187499,26.3024999 C25.6770449,26.3024999 26.3024999,25.6770449 26.3024999,24.9187499 L26.3024999,5.54625011 C26.3024999,4.78795512 25.6770449,4.16250012 24.9187499,4.16250012 L5.54625011,4.16250012 Z M5.54625011,5.08500011 L24.9187499,5.08500011 C25.1825849,5.08500011 25.3799999,5.28241511 25.3799999,5.54625011 L25.3799999,24.9187499 C25.3799999,25.1825849 25.1825849,25.3799999 24.9187499,25.3799999 L5.54625011,25.3799999 C5.28241511,25.3799999 5.08500011,25.1825849 5.08500011,24.9187499 L5.08500011,5.54625011 C5.08500011,5.28241511 5.28241511,5.08500011 5.54625011,5.08500011 Z" id="path-1"></path>
    </defs>
    <g id="Symbols" stroke="none" stroke-width="1" fill="none" fill-rule="evenodd">
        <g id="icon/eventopen_black">
            <g>
                <rect id="Rectangle-Copy" fill-rule="nonzero" x="0" y="0" width="36" height="36"></rect>
                <mask id="mask-2" fill="white">
                    <use xlink:href="#path-1"></use>
                </mask>
                <use id="Icon" fill="#000000" fill-rule="nonzero" xlink:href="#path-1"></use>
            </g>
        </g>
    </g>
</svg>