<?xml version="1.0" encoding="utf-8"?>
<!-- Generator: Adobe Illustrator 22.0.1, SVG Export Plug-In . SVG Version: 6.00 Build 0)  -->
<svg version="1.1" id="레이어_1" xmlns="http://www.w3.org/2000/svg" xmlns:xlink="http://www.w3.org/1999/xlink" x="0px"
	 y="0px" viewBox="0 0 182.3 49.5" style="enable-background:new 0 0 182.3 49.5;" xml:space="preserve">
<style type="text/css">
	.st0{fill:#C40F39;}
	.st1{fill:#636363;}
</style>
<g>
	<path class="st0" d="M30.7,24.1c0.3,0.4,0.4,1,0.3,1.9c-0.1,0.9-0.2,1.8-0.5,2.8c-0.3,1-0.6,2-0.9,2.9c-0.3,1-0.6,1.8-0.8,2.4
		c-0.5,1.4-1,2.8-1.4,4.1c-0.4,1.3-0.9,2.6-1.5,4.1c-0.2,0.4-0.4,0.9-0.5,1.3c-0.2,0.4-0.4,0.8-0.6,1.2c-0.2,0.3-0.5,0.6-0.8,0.8
		c-0.3,0.2-0.7,0.3-1.2,0.3c-0.5,0-1-0.2-1.4-0.6c-0.4-0.4-0.7-0.8-1-1.4c-0.3-0.6-0.5-1.2-0.7-1.8c-0.2-0.6-0.3-1.2-0.5-1.6
		c-0.4-1.4-0.8-2.6-1.1-3.8c-0.3-1.1-0.6-2.2-0.8-3.1c-0.3,0.9-0.6,1.9-0.8,3c-0.3,1.1-0.6,2.3-1.1,3.6c-0.1,0.5-0.3,1-0.5,1.7
		c-0.2,0.7-0.4,1.3-0.7,1.9s-0.6,1.1-1,1.5c-0.4,0.4-0.9,0.6-1.4,0.5c-0.8,0-1.4-0.3-2-0.9c-0.6-0.6-1-1.3-1.4-2.1
		c-0.4-0.8-0.7-1.7-1-2.5c-0.3-0.9-0.5-1.7-0.7-2.3c-0.3-0.8-0.6-1.8-0.9-2.8c-0.3-1-0.7-2.1-1-3.2s-0.6-2.2-0.9-3.3
		c-0.3-1.1-0.5-2.1-0.6-3c-0.1-0.6,0.1-1.1,0.4-1.7c0.3-0.5,0.7-0.9,1.2-1.1c0.5-0.2,1-0.2,1.6-0.1c0.6,0.1,1.1,0.5,1.6,1.1
		c0.3,0.3,0.5,0.7,0.7,1.2c0.2,0.5,0.4,1,0.5,1.5c0.2,0.6,0.3,1.1,0.5,1.7c0.2,0.6,0.3,1.1,0.5,1.7c0.3,1.2,0.6,2.1,0.9,2.8
		c0.2,0.7,0.5,1.4,0.7,2.1c0.2-0.7,0.4-1.4,0.7-2.1c0.2-0.7,0.5-1.6,0.9-2.8c0.1-0.4,0.3-0.8,0.4-1.3c0.2-0.5,0.4-1,0.6-1.4
		c0.2-0.4,0.4-0.9,0.7-1.2c0.3-0.4,0.6-0.7,0.9-0.9c0.7-0.5,1.3-0.6,1.9-0.4c0.6,0.2,1.1,0.6,1.5,1.2c0.4,0.6,0.8,1.2,1.1,2
		c0.3,0.7,0.5,1.4,0.7,2c0.2,0.6,0.4,1.2,0.5,1.6c0.2,0.5,0.3,0.9,0.4,1.2c0.1,0.4,0.2,0.7,0.4,1.1c0.1,0.3,0.2,0.7,0.4,1.1
		c0.1-0.4,0.2-0.7,0.4-1.1c0.1-0.3,0.2-0.7,0.4-1.1c0.1-0.4,0.3-0.8,0.4-1.2c0.2-0.5,0.3-1,0.5-1.6c0.1-0.4,0.3-0.9,0.4-1.4
		c0.1-0.5,0.3-1.1,0.4-1.6c0.2-0.5,0.3-1.1,0.5-1.6c0.2-0.5,0.4-0.9,0.6-1.3c0.2-0.3,0.5-0.6,0.9-0.9c0.4-0.2,0.8-0.4,1.2-0.4
		c0.4,0,0.8,0,1.2,0.2S30.4,23.6,30.7,24.1z"/>
	<path d="M40.9,24c1-0.5,2.1-0.9,3.3-1.1c1.1-0.2,2.3-0.3,3.4-0.1c1.1,0.1,2.2,0.4,3.3,0.9c1.1,0.5,2,1.1,2.9,2
		c0.7,0.7,1.4,1.6,1.9,2.6c0.5,1,0.9,2,1.2,3c0.5,1.7,0.6,3.5,0.2,5.2c-0.4,1.8-1,3.4-1.9,4.9c-0.4,0.7-1,1.3-1.6,1.9
		c-0.6,0.5-1.3,1-2.1,1.3c-0.9,0.4-2,0.7-3.1,0.9c-1.1,0.2-2.2,0.2-3.2,0.1c-1.9-0.1-3.5-0.6-5-1.4c-1.4-0.8-2.6-1.9-3.4-3.3
		c-0.9-1.3-1.4-2.8-1.7-4.5c-0.3-1.7-0.2-3.4,0.3-5.2c0.5-1.9,1.2-3.4,2.2-4.6C38.4,25.6,39.6,24.7,40.9,24z M42.3,30.3
		c-0.5,0.4-0.8,1-1.1,1.6c-0.3,0.7-0.4,1.3-0.5,2.1c-0.1,0.7,0,1.4,0.2,2.1c0.2,0.7,0.4,1.3,0.8,1.9c0.3,0.5,0.9,0.9,1.7,1.2
		c0.8,0.3,1.7,0.5,2.5,0.6c1,0.1,1.9-0.2,2.6-0.8c0.8-0.6,1.3-1.4,1.7-2.3s0.6-1.9,0.5-3c0-1.1-0.3-2-0.8-2.9
		c-0.4-0.6-0.9-1.1-1.6-1.4c-0.7-0.3-1.4-0.5-2.1-0.5c-0.7,0-1.5,0.1-2.2,0.3C43.4,29.5,42.8,29.9,42.3,30.3z"/>
	<path d="M67.1,24c1-0.5,2.1-0.9,3.3-1.1c1.1-0.2,2.3-0.3,3.4-0.1c1.1,0.1,2.2,0.4,3.3,0.9c1.1,0.5,2,1.1,2.9,2
		c0.7,0.7,1.4,1.6,1.9,2.6c0.5,1,0.9,2,1.2,3c0.5,1.7,0.6,3.5,0.2,5.2c-0.4,1.8-1,3.4-1.9,4.9c-0.4,0.7-1,1.3-1.6,1.9
		c-0.6,0.5-1.3,1-2.1,1.3c-0.9,0.4-2,0.7-3.1,0.9c-1.1,0.2-2.2,0.2-3.2,0.1c-1.9-0.1-3.5-0.6-5-1.4c-1.4-0.8-2.6-1.9-3.4-3.3
		c-0.9-1.3-1.4-2.8-1.7-4.5c-0.3-1.7-0.2-3.4,0.3-5.2c0.5-1.9,1.2-3.4,2.2-4.6C64.6,25.6,65.8,24.7,67.1,24z M68.5,30.3
		c-0.5,0.4-0.8,1-1.1,1.6c-0.3,0.7-0.4,1.3-0.5,2.1c-0.1,0.7,0,1.4,0.2,2.1c0.2,0.7,0.4,1.3,0.8,1.9c0.3,0.5,0.9,0.9,1.7,1.2
		c0.8,0.3,1.7,0.5,2.5,0.6c1,0.1,1.9-0.2,2.6-0.8c0.8-0.6,1.3-1.4,1.7-2.3s0.6-1.9,0.5-3c0-1.1-0.3-2-0.8-2.9
		c-0.4-0.6-0.9-1.1-1.6-1.4C74,29.1,73.3,29,72.5,29c-0.7,0-1.5,0.1-2.2,0.3C69.6,29.5,69,29.9,68.5,30.3z"/>
	<path d="M87.2,28.6c0-0.4,0-0.8,0-1.3c0-0.5,0-1,0-1.5c0-0.5,0.1-1,0.2-1.5c0.1-0.5,0.2-0.9,0.4-1.3c0.3-0.6,0.6-1,1.2-1.2
		c0.5-0.2,1.1-0.3,1.7-0.3c0.7,0,1.2,0.1,1.6,0.3c0.4,0.2,0.7,0.5,0.8,0.9c0.2,0.4,0.3,0.8,0.4,1.2c0,0.5,0.1,0.9,0.1,1.4
		c0.3-0.5,0.7-0.9,1.2-1.2c0.5-0.3,1-0.6,1.5-0.8c0.5-0.2,1-0.3,1.4-0.4c0.4-0.1,0.6-0.1,0.7-0.1c0.8-0.1,1.5-0.1,2.1,0
		c0.6,0,1.4,0.2,2.1,0.4c0.5,0.2,1,0.4,1.6,0.8c0.5,0.3,1,0.7,1.4,1.2c0.4,0.4,0.7,0.9,0.8,1.4c0.1,0.5,0.1,1.1-0.2,1.6
		c-0.4,0.8-0.9,1.2-1.5,1.2c-0.5,0-1.1-0.1-1.7-0.3c-0.3-0.1-0.8-0.2-1.2-0.4c-0.5-0.2-0.9-0.4-1.2-0.4c-1.1-0.2-2-0.1-2.8,0.2
		c-0.8,0.3-1.5,0.7-2.1,1.1c-0.7,0.5-1.3,1.1-1.8,1.8v6.8c0,0.8,0,1.7,0,2.6c0,0.9-0.1,1.7-0.4,2.5c-0.2,0.7-0.6,1.3-1.2,1.8
		c-0.6,0.5-1.3,0.7-2.4,0.6c-0.6,0-1.1-0.3-1.5-0.8c-0.4-0.5-0.7-1-0.8-1.5c-0.1-0.5-0.1-1-0.1-1.7c0-0.7-0.1-1.4-0.1-2.1
		c0-0.7,0-1.5,0-2.2c0-0.7,0-1.4,0-2.1V28.6z"/>
	<path d="M116.1,27.5c0,0.9,0,1.9,0,3c0,1.1,0,2.2,0,3.4s0,2.3,0,3.5c0,1.1,0,2.2,0,3.2c0,0.5-0.1,1-0.1,1.5
		c-0.1,0.5-0.2,1.1-0.4,1.5c-0.2,0.5-0.5,0.9-0.9,1.2c-0.4,0.3-0.9,0.4-1.6,0.4c-1-0.1-1.7-0.5-2.1-1.3c-0.4-0.8-0.7-1.9-0.7-3.3
		c0-0.7,0-1.6,0-2.5c0-0.9,0-1.9,0-2.9c0-1,0-1.9,0-2.9c0-0.9,0-1.8,0-2.5c0-0.4,0-1,0-1.6c0-0.6,0-1.3,0-1.9c0-0.7,0.1-1.3,0.2-1.9
		c0.1-0.6,0.3-1.1,0.6-1.5c0.2-0.3,0.5-0.4,0.9-0.6c0.4-0.1,0.8-0.2,1.3-0.2c0.5,0,0.9,0.1,1.3,0.2c0.4,0.2,0.7,0.4,0.9,0.7
		c0.1,0.2,0.2,0.5,0.3,0.8c0.1,0.3,0.1,0.7,0.2,1.2c0,0.4,0.1,0.9,0.1,1.3C116.1,26.7,116.1,27.1,116.1,27.5z M114.3,17.9
		c-1,0.3-1.8,0.1-2.4-0.3c-0.6-0.5-1-1.1-1.2-2.1c-0.1-0.7-0.1-1.2,0.1-1.7c0.2-0.5,0.5-0.9,1-1.2c0.4-0.3,0.9-0.4,1.5-0.4
		c0.6,0,1.1,0.3,1.7,0.7c0.5,0.4,0.9,0.8,1.2,1.3c0.2,0.5,0.3,1,0.2,1.5c-0.1,0.5-0.3,0.9-0.6,1.3C115.4,17.5,114.9,17.8,114.3,17.9
		z"/>
	<path d="M129.6,34.5c0.7,0.7,1.2,1.2,1.5,1.6s0.6,0.6,0.7,0.7c0.1,0.2,0.2,0.3,0.3,0.3c0.1,0,0.2,0.1,0.3,0.3
		c0.2,0.2,0.4,0.4,0.8,0.7c0.3,0.3,0.9,0.9,1.6,1.6c0.6,0.6,1,1.2,1.4,2s0.3,1.5-0.1,2.4c-0.3,0.4-0.5,0.7-0.8,0.9
		c-0.3,0.2-0.7,0.2-1,0.2c-0.4,0-0.7-0.1-1.1-0.3s-0.8-0.4-1.2-0.7c-0.7-0.5-1.4-1.2-2.1-1.9c-0.7-0.7-1.2-1.2-1.6-1.6
		c-0.3-0.3-0.5-0.5-0.5-0.6c-0.1-0.1-0.1-0.1-0.2-0.2c-0.1,0-0.1-0.1-0.2-0.2c-0.2-0.2-0.5-0.4-0.7-0.7c-0.3-0.2-0.5-0.5-0.8-0.7
		v1.8c0,0.3,0,0.6,0,0.8c0,0.3,0,0.5,0,0.7c-0.1,0.3-0.1,0.7-0.1,1c0,0.2-0.1,0.3-0.1,0.4c0,0.1-0.1,0.3-0.1,0.4
		c0,0.1-0.1,0.1-0.1,0.1c0,0,0,0.1,0,0.1c0,0.1-0.1,0.1-0.1,0.1c0,0,0,0.1-0.1,0.1c-0.2,0.3-0.4,0.6-0.8,0.9
		c-0.6,0.3-1.3,0.4-2.2,0.3c-0.5-0.1-0.8-0.3-1.1-0.5c-0.3-0.2-0.5-0.5-0.6-0.8c-0.1-0.2-0.1-0.3-0.2-0.5c0-0.2-0.1-0.3-0.2-0.5
		c-0.1-0.2-0.1-0.3-0.1-0.4s0-0.3,0-0.4V15.3c0-0.2,0-0.4,0-0.6c0-0.2,0-0.4,0-0.6c0-0.2,0.1-0.4,0.1-0.5c0-0.2,0.1-0.3,0.2-0.5
		c0.1-0.3,0.3-0.6,0.5-0.8c0.2-0.2,0.3-0.3,0.5-0.4c0.2-0.1,0.3-0.1,0.5-0.2c0.2,0,0.3-0.1,0.5-0.1c0.2,0,0.4,0,0.6,0
		c0.4,0,0.9,0.1,1.3,0.4c0.4,0.3,0.7,0.6,0.9,1.1c0.3,0.6,0.4,1.2,0.4,1.7c0,0.3,0.1,0.8,0.1,1.4c0,0.6,0,1.1,0,1.4V18c0,1,0,2,0,3
		c0,0.9,0,2,0,3.1c0,1.1,0,2.1,0,3.1c0,1,0,2,0,2.9v0.5c0.3-0.3,0.5-0.5,0.8-0.7c0.3-0.2,0.5-0.5,0.7-0.7c0.1-0.1,0.3-0.2,0.4-0.3
		l0.5-0.5c0.4-0.4,0.9-1,1.6-1.7c0.7-0.7,1.4-1.3,2.1-1.9c0.8-0.6,1.5-0.9,2.3-1c0.7-0.1,1.4,0.3,1.9,1.1c0.4,0.8,0.5,1.6,0.1,2.4
		c-0.4,0.7-0.8,1.4-1.4,2.1c-0.7,0.7-1.2,1.2-1.6,1.6c-0.3,0.3-0.6,0.6-0.8,0.7c-0.2,0.1-0.3,0.2-0.3,0.3c-0.1,0-0.2,0.1-0.3,0.3
		c-0.1,0.1-0.4,0.4-0.7,0.7S130.3,33.8,129.6,34.5z"/>
	<path d="M146.2,27.5c0,0.9,0,1.9,0,3c0,1.1,0,2.2,0,3.4s0,2.3,0,3.5c0,1.1,0,2.2,0,3.2c0,0.5-0.1,1-0.1,1.5
		c-0.1,0.5-0.2,1.1-0.4,1.5c-0.2,0.5-0.5,0.9-0.9,1.2c-0.4,0.3-0.9,0.4-1.6,0.4c-1-0.1-1.7-0.5-2.1-1.3c-0.4-0.8-0.7-1.9-0.7-3.3
		c0-0.7,0-1.6,0-2.5c0-0.9,0-1.9,0-2.9c0-1,0-1.9,0-2.9c0-0.9,0-1.8,0-2.5c0-0.4,0-1,0-1.6c0-0.6,0-1.3,0-1.9c0-0.7,0.1-1.3,0.2-1.9
		c0.1-0.6,0.3-1.1,0.6-1.5c0.2-0.3,0.5-0.4,0.9-0.6c0.4-0.1,0.8-0.2,1.3-0.2c0.5,0,0.9,0.1,1.3,0.2c0.4,0.2,0.7,0.4,0.9,0.7
		c0.1,0.2,0.2,0.5,0.3,0.8c0.1,0.3,0.1,0.7,0.2,1.2c0,0.4,0.1,0.9,0.1,1.3C146.2,26.7,146.2,27.1,146.2,27.5z M144.4,17.9
		c-1,0.3-1.8,0.1-2.4-0.3c-0.6-0.5-1-1.1-1.2-2.1c-0.1-0.7-0.1-1.2,0.1-1.7c0.2-0.5,0.5-0.9,1-1.2c0.4-0.3,0.9-0.4,1.5-0.4
		c0.6,0,1.1,0.3,1.7,0.7c0.5,0.4,0.9,0.8,1.2,1.3c0.2,0.5,0.3,1,0.2,1.5c-0.1,0.5-0.3,0.9-0.6,1.3C145.5,17.5,145,17.8,144.4,17.9z"
		/>
	<path d="M150.4,28.6c0-0.4,0-0.8,0-1.3c0-0.5,0-1,0-1.5c0-0.5,0.1-1,0.2-1.5c0.1-0.5,0.2-0.9,0.4-1.3c0.3-0.6,0.6-1,1.2-1.2
		c0.5-0.2,1.1-0.3,1.7-0.3c0.7,0,1.2,0.1,1.6,0.3c0.4,0.2,0.7,0.5,0.8,0.9c0.2,0.4,0.3,0.8,0.4,1.2c0,0.5,0.1,0.9,0.1,1.4
		c0.3-0.5,0.7-0.9,1.2-1.2c0.5-0.3,1-0.6,1.5-0.8c0.5-0.2,1-0.3,1.4-0.4c0.4-0.1,0.6-0.1,0.7-0.1c0.8-0.1,1.5-0.1,2.1,0
		c0.6,0,1.4,0.2,2.1,0.4c0.5,0.2,1,0.4,1.6,0.8c0.5,0.3,1,0.7,1.4,1.2c0.4,0.4,0.7,0.9,0.8,1.4c0.1,0.5,0.1,1.1-0.2,1.6
		c-0.4,0.8-0.9,1.2-1.5,1.2c-0.5,0-1.1-0.1-1.7-0.3c-0.3-0.1-0.8-0.2-1.2-0.4c-0.5-0.2-0.9-0.4-1.2-0.4c-1.1-0.2-2-0.1-2.8,0.2
		c-0.8,0.3-1.5,0.7-2.1,1.1c-0.7,0.5-1.3,1.1-1.8,1.8v6.8c0,0.8,0,1.7,0,2.6c0,0.9-0.1,1.7-0.4,2.5c-0.2,0.7-0.6,1.3-1.2,1.8
		c-0.6,0.5-1.3,0.7-2.4,0.6c-0.6,0-1.1-0.3-1.5-0.8c-0.4-0.5-0.7-1-0.8-1.5c-0.1-0.5-0.1-1-0.1-1.7c0-0.7-0.1-1.4-0.1-2.1
		c0-0.7,0-1.5,0-2.2c0-0.7,0-1.4,0-2.1V28.6z"/>
	<path d="M179.3,27.5c0,0.9,0,1.9,0,3c0,1.1,0,2.2,0,3.4s0,2.3,0,3.5c0,1.1,0,2.2,0,3.2c0,0.5-0.1,1-0.1,1.5
		c-0.1,0.5-0.2,1.1-0.4,1.5c-0.2,0.5-0.5,0.9-0.9,1.2c-0.4,0.3-0.9,0.4-1.6,0.4c-1-0.1-1.7-0.5-2.1-1.3c-0.4-0.8-0.7-1.9-0.7-3.3
		c0-0.7,0-1.6,0-2.5c0-0.9,0-1.9,0-2.9c0-1,0-1.9,0-2.9c0-0.9,0-1.8,0-2.5c0-0.4,0-1,0-1.6c0-0.6,0-1.3,0-1.9c0-0.7,0.1-1.3,0.2-1.9
		c0.1-0.6,0.3-1.1,0.6-1.5c0.2-0.3,0.5-0.4,0.9-0.6c0.4-0.1,0.8-0.2,1.3-0.2c0.5,0,0.9,0.1,1.3,0.2c0.4,0.2,0.7,0.4,0.9,0.7
		c0.1,0.2,0.2,0.5,0.3,0.8c0.1,0.3,0.1,0.7,0.2,1.2c0,0.4,0.1,0.9,0.1,1.3C179.3,26.7,179.3,27.1,179.3,27.5z M177.5,17.9
		c-1,0.3-1.8,0.1-2.4-0.3c-0.6-0.5-1-1.1-1.2-2.1c-0.1-0.7-0.1-1.2,0.1-1.7c0.2-0.5,0.5-0.9,1-1.2c0.4-0.3,0.9-0.4,1.5-0.4
		c0.6,0,1.1,0.3,1.7,0.7c0.5,0.4,0.9,0.8,1.2,1.3c0.2,0.5,0.3,1,0.2,1.5c-0.1,0.5-0.3,0.9-0.6,1.3C178.6,17.5,178.1,17.8,177.5,17.9
		z"/>
</g>
<g>
	<path class="st1" d="M4.5,10.9c-0.2,0-0.4,0-0.5-0.1c-0.2,0-0.3-0.1-0.4-0.3c-0.1-0.1-0.1-0.1-0.1-0.2c0-0.1,0-0.1,0-0.2
		c0-0.2,0.1-0.3,0.2-0.4c0,0,0.1,0,0.1-0.1c0,0,0.1,0,0.1,0c0,0,0.1,0,0.1-0.1c0,0,0.1,0,0.1,0c0,0,0.1,0,0.1,0s0.1,0,0.1,0h7
		c0.1,0,0.1,0,0.2,0c0.1,0,0.1,0,0.2,0.1c0.1,0,0.2,0.1,0.3,0.2c0,0.1,0.1,0.1,0.1,0.2c0,0.1,0,0.1,0,0.2c0,0.2-0.1,0.4-0.2,0.4
		c-0.1,0.1-0.1,0.1-0.2,0.1c-0.1,0-0.2,0.1-0.3,0.1c-0.2,0.1-0.4,0.1-0.6,0.1H8.7c0,0,0,0.1,0,0.1v1c0,0.1,0,0.1,0,0.2
		c0,0.1,0,0.1,0,0.2c0,0.1,0,0.2,0,0.2c0,0.1,0,0.1-0.1,0.2c-0.1,0.1-0.1,0.3-0.3,0.4c-0.1,0-0.1,0.1-0.2,0.1c-0.1,0-0.1,0-0.2,0
		c-0.1,0-0.2,0-0.2,0c-0.1,0-0.1,0-0.2-0.1c-0.1-0.1-0.2-0.2-0.2-0.3c0-0.1,0-0.1-0.1-0.2c0-0.1,0-0.1,0-0.2c0,0,0-0.1,0-0.2
		c0-0.1,0-0.1,0-0.1c0,0,0-0.1,0-0.1c0-0.1,0-0.1,0-0.1c0-0.1,0-0.2,0-0.4s0-0.3,0-0.4v-0.3H4.5z M11.6,5.7c0,0.1,0,0.2,0,0.2
		c0,0.1,0,0.2,0,0.3c0,0.1,0,0.2,0,0.2c0,0.1,0,0.2,0,0.2c0,0.3-0.1,0.6-0.3,0.8S11,8,10.7,8.1c-0.3,0.2-0.6,0.3-1,0.4
		S8.9,8.6,8.5,8.6H7.6c-0.2,0-0.3,0-0.4,0s-0.3,0-0.4,0c-0.2,0-0.3,0-0.5,0C6.2,8.5,6,8.5,5.9,8.5c-0.1,0-0.3-0.1-0.4-0.1
		c-0.1,0-0.2-0.1-0.4-0.2C4.9,8.1,4.7,7.9,4.6,7.8S4.3,7.5,4.3,7.3C4.2,7.1,4.1,6.9,4.1,6.7S4,6.3,4,6.1c0-0.2,0-0.4,0.1-0.6
		S4.2,5.2,4.3,5c0.1-0.2,0.2-0.3,0.3-0.4s0.3-0.3,0.5-0.4c0.1-0.1,0.2-0.1,0.3-0.2C5.5,4,5.6,4,5.8,3.9C6,3.9,6.3,3.8,6.6,3.7
		c0.2,0,0.3-0.1,0.5-0.1c0.1,0,0.3,0,0.4,0c0.3,0,0.5,0,0.7,0c0.2,0,0.4,0,0.5,0s0.3,0,0.5,0.1c0.1,0,0.3,0.1,0.4,0.1
		c0.2,0,0.3,0.1,0.5,0.2c0.1,0,0.1,0.1,0.2,0.1c0.1,0,0.2,0.1,0.2,0.1c0.2,0.1,0.4,0.3,0.5,0.4c0.1,0.1,0.1,0.2,0.2,0.3
		c0.1,0.1,0.1,0.2,0.1,0.3c0,0.1,0.1,0.2,0.1,0.3C11.6,5.5,11.6,5.6,11.6,5.7z M10.1,6.3c0-0.2,0-0.3-0.1-0.5c0-0.1-0.1-0.1-0.1-0.2
		C9.8,5.6,9.8,5.5,9.7,5.5C9.6,5.4,9.5,5.4,9.3,5.4s-0.3,0-0.4,0C8.7,5.3,8.4,5.3,8,5.2c-0.2,0-0.3,0-0.5,0c-0.2,0-0.3,0-0.5,0
		c-0.2,0-0.3,0-0.5,0.1c-0.1,0-0.3,0.1-0.4,0.2C5.9,5.6,5.7,5.8,5.7,6c0,0.2,0,0.3,0,0.4c0,0.1,0,0.1,0.1,0.2c0,0.1,0.1,0.1,0.2,0.2
		C6,6.9,6.2,7,6.4,7.1c0.2,0.1,0.4,0.1,0.7,0.1c0.1,0,0.2,0,0.4,0c0.1,0,0.3,0,0.4,0h0.9c0.3,0,0.5-0.1,0.8-0.1
		C9.8,7.1,9.9,6.9,10,6.8c0-0.1,0.1-0.2,0.1-0.2C10.1,6.5,10.1,6.4,10.1,6.3z"/>
	<path class="st1" d="M14.7,9.2c-0.1,0-0.1,0-0.2,0.1c0,0-0.1,0.1-0.1,0.2c0,0.1,0,0.1,0,0.2c0,0.1,0,0.1,0,0.2c0,0,0,0.1,0,0.2
		s0,0.2,0,0.2c0,0.1,0,0.2,0,0.2s0,0.1,0,0.2c0,0,0,0.1,0,0.2c0,0.1,0,0.1,0.1,0.2c0,0,0,0,0,0c0,0,0,0,0,0c0.2,0,0.4,0,0.6,0
		c0.2,0,0.4,0,0.6,0c0.3,0,0.6,0,0.9,0c0.3,0,0.6,0,0.9,0c0.1,0,0.2,0,0.3,0.1c0.1,0,0.1,0.1,0.1,0.2c0,0.1,0.1,0.1,0.1,0.2
		c0,0.1,0,0.2,0,0.2c0,0.1,0,0.2,0,0.3c0,0.1-0.1,0.1-0.1,0.2c0,0-0.1,0.1-0.1,0.1c-0.1,0-0.1,0.1-0.2,0.1c-0.2,0.1-0.3,0.1-0.5,0.1
		s-0.3,0-0.5,0c-0.1,0-0.3,0-0.5,0c-0.2,0-0.3,0-0.5,0c-0.1,0-0.3,0-0.4,0s-0.3,0-0.4,0c-0.1,0-0.2,0-0.3,0s-0.2,0-0.3,0
		c-0.2,0-0.4,0-0.6-0.1c-0.2,0-0.4-0.1-0.5-0.2c-0.1-0.1-0.2-0.2-0.2-0.3c0-0.1-0.1-0.2-0.1-0.3c0-0.1,0-0.2,0-0.3
		c0-0.2,0-0.4,0-0.6c0-0.2,0-0.4,0-0.6c0-0.2,0-0.4,0-0.6c0-0.2,0-0.4,0-0.6c0-0.1,0-0.3,0-0.5c0-0.2,0-0.3,0.1-0.4
		c0.1-0.1,0.1-0.2,0.2-0.2s0.2-0.1,0.3-0.1c0.1,0,0.2,0,0.3,0c0.1,0,0.2,0,0.3,0h1.1c0,0,0.1,0,0.2,0s0.2,0,0.3,0c0.1,0,0.2,0,0.3,0
		s0.2,0,0.2,0c0.1,0,0.1-0.1,0.1-0.1c0-0.2,0.1-0.4,0.1-0.7c0-0.2,0-0.5,0-0.7c0-0.1,0-0.2,0-0.3c0-0.1,0-0.2-0.1-0.3
		c-0.1-0.1-0.2-0.1-0.4-0.1l-2.2,0c-0.1,0-0.2,0-0.4,0S13,5.3,13,5.2c0,0,0-0.1-0.1-0.1c0,0,0-0.1-0.1-0.1c-0.1-0.2,0-0.4,0.1-0.6
		C13,4.2,13.1,4.1,13.4,4c0.2,0,0.4-0.1,0.6,0c0.2,0,0.4,0,0.6,0h1.8c0.2,0,0.3,0,0.5,0c0.2,0,0.3,0,0.5,0.1c0.2,0,0.3,0.2,0.4,0.4
		c0,0,0,0.1,0,0.1c0,0,0,0.1,0,0.1c0,0,0,0.1,0,0.1c0,0,0,0.1,0,0.1c0,0.1,0,0.3,0,0.5s0,0.3,0,0.4c0,0.3,0,0.5,0,0.8s0,0.6,0,0.8
		c0,0.3,0,0.5,0,0.8c0,0.2,0,0.5-0.1,0.6c-0.1,0.2-0.2,0.3-0.3,0.3c-0.1,0.1-0.3,0.1-0.4,0.1c-0.2,0-0.3,0-0.4,0c-0.1,0-0.2,0-0.3,0
		c-0.1,0-0.2,0-0.4,0c-0.1,0-0.2,0-0.3,0c-0.1,0-0.2,0-0.3,0c-0.1,0-0.1,0-0.2,0c0,0-0.1,0-0.1,0c0,0-0.1,0-0.1,0S14.8,9.2,14.7,9.2
		z M21.2,12c0,0.1,0,0.2,0,0.3c0,0.1,0,0.2-0.1,0.3c0,0,0,0.1,0,0.1c0,0,0,0.1,0,0.1c-0.1,0.1-0.1,0.2-0.2,0.3
		c-0.2,0.1-0.4,0.1-0.6,0.1c-0.1,0-0.2-0.1-0.3-0.1c-0.1-0.1-0.1-0.1-0.2-0.2c0-0.1-0.1-0.2-0.1-0.3c0-0.1,0-0.2,0-0.2
		c0-0.1,0-0.1,0-0.1v-7c0-0.1,0-0.2,0-0.3c0-0.1,0-0.2,0-0.3c0-0.1,0-0.2,0.1-0.3s0.1-0.2,0.1-0.2c0.1-0.1,0.2-0.1,0.3-0.2
		c0.1,0,0.2,0,0.3,0c0.1,0,0.3,0,0.4,0.1C20.9,3.9,21,4,21,4.2c0.1,0.2,0.1,0.3,0.1,0.5s0,0.4,0,0.5v0.1c0,0.6,0,1.2,0,1.7
		s0,1.1,0,1.6v3c0,0.1,0,0.1,0,0.2C21.2,11.9,21.2,12,21.2,12z"/>
	<path class="st1" d="M22.7,7.5c0.1,0,0.1,0,0.2,0s0.2,0,0.2,0h0.3h2.6c0.4,0,0.8,0,1.2,0c0.3,0,0.7,0,1.1,0c0.4,0,0.7,0,1,0h0.1
		c0.2,0,0.3,0,0.5,0c0.2,0,0.3,0,0.5,0.1c0.1,0,0.2,0.1,0.3,0.2s0.1,0.2,0.1,0.3c0,0.2-0.1,0.4-0.2,0.5c-0.1,0.1-0.3,0.2-0.5,0.2
		s-0.4,0-0.5,0h-6.8c0,0,0,0-0.1,0c-0.1,0-0.1,0-0.2,0c-0.1,0-0.2,0-0.3-0.1c-0.1,0-0.2-0.1-0.2-0.1c-0.1-0.1-0.1-0.2-0.1-0.4
		c0-0.2,0.1-0.3,0.2-0.4c0.1-0.1,0.2-0.2,0.3-0.2c0.1,0,0.2,0,0.3-0.1C22.6,7.5,22.6,7.5,22.7,7.5C22.7,7.5,22.7,7.5,22.7,7.5z
		 M29.7,12.2c0.1,0,0.2,0,0.3,0.1s0.2,0.1,0.2,0.3c0.1,0.3,0,0.5-0.3,0.6c-0.1,0-0.2,0.1-0.3,0.1s-0.2,0-0.3,0h-5.5
		c-0.2,0-0.3,0-0.5,0s-0.3,0-0.5,0c-0.2,0-0.3-0.1-0.4-0.2c-0.1-0.1-0.2-0.3-0.2-0.4l0-0.8c0-0.1,0-0.2,0-0.3c0-0.1,0-0.2,0.1-0.3
		c0.1-0.1,0.3-0.2,0.4-0.2c0.2,0,0.4,0,0.5,0c0.1,0,0.3,0,0.6,0c0.3,0,0.6,0,1,0c0.4,0,1,0,1.6,0c0.7,0,1.4,0,2.3,0v-0.4h-5.8
		c-0.1,0-0.2,0-0.2,0c-0.1,0-0.1,0-0.2,0c-0.1,0-0.1,0-0.2,0s-0.1-0.1-0.1-0.1c-0.1-0.2-0.1-0.3-0.1-0.5c0-0.1,0.1-0.1,0.1-0.1
		c0,0,0.1-0.1,0.2-0.1c0.1,0,0.1,0,0.2,0c0.1,0,0.1,0,0.2,0c0.1,0,0.2,0,0.4,0c0.1,0,0.2,0,0.4,0s0.3,0,0.5,0c0.2,0,0.4,0,0.7,0
		c0.3,0,0.6,0,1,0c0.4,0,0.8,0,1.4,0s1.1,0,1.9,0c0.4,0,0.7,0.1,0.9,0.2c0.2,0.1,0.3,0.3,0.3,0.6v0.8c0,0.1,0,0.2-0.1,0.3
		c-0.1,0.1-0.1,0.2-0.3,0.3c-0.1,0.1-0.2,0.1-0.3,0.1s-0.2,0-0.3,0h-5.6v0.4H29.7z M22.3,5.3c0-0.2,0-0.4,0-0.6c0-0.2,0-0.4,0.1-0.6
		c0.1-0.2,0.2-0.3,0.4-0.4s0.4-0.1,0.6-0.1h5.5c0.2,0,0.3,0,0.4,0c0.1,0,0.3,0,0.5,0.1C30,3.8,30.1,3.9,30.1,4
		c0.1,0.1,0.1,0.2,0.1,0.4c0,0.1-0.1,0.3-0.1,0.3C30,4.9,29.9,4.9,29.8,5C29.6,5,29.4,5,29.1,5c-0.1,0-0.2,0-0.2,0
		c-0.1,0-0.1,0-0.1,0h-3.4c-0.1,0-0.2,0-0.4,0c-0.1,0-0.2,0-0.4,0c-0.1,0-0.2,0-0.3,0c-0.1,0-0.2,0-0.3,0c-0.1,0-0.1,0.1-0.1,0.2
		s0,0.2,0,0.3c0.1,0,0.2,0,0.3,0c0.1,0,0.2,0,0.3,0h2.3c0,0,0.1,0,0.2,0c0.1,0,0.2,0,0.4,0s0.3,0,0.4,0c0.1,0,0.2,0,0.2,0
		c0,0,0.1,0,0.2,0s0.2,0,0.3,0s0.2,0,0.3,0s0.1,0,0.2,0c0.4,0,0.7,0.1,0.9,0.2c0.1,0,0.1,0.1,0.2,0.1c0.1,0,0.1,0.1,0.1,0.2
		c0.1,0.2,0,0.4-0.1,0.5c-0.1,0.1-0.2,0.2-0.4,0.3s-0.3,0-0.5,0.1c-0.1,0-0.2,0-0.5,0c-0.2,0-0.5,0-0.7,0c-0.3,0-0.5,0-0.8,0
		c-0.3,0-0.4,0-0.6,0c-0.1,0-0.3,0-0.5,0c-0.2,0-0.4,0-0.5,0c-0.2,0-0.4,0-0.5,0c-0.2,0-0.3,0-0.4,0c-0.3,0-0.5,0-0.8,0
		c-0.3,0-0.5,0-0.8,0c-0.2,0-0.3,0-0.4-0.1c-0.1-0.1-0.2-0.1-0.2-0.2c0-0.1-0.1-0.2-0.1-0.4c0-0.1,0-0.3,0-0.5c0-0.1,0-0.1,0-0.2
		S22.3,5.4,22.3,5.3z"/>
	<path class="st1" d="M37.4,10.6c0.1,0,0.2,0.1,0.3,0.1c0.1,0.1,0.1,0.2,0.2,0.2c0,0.1,0.1,0.2,0.1,0.3c0,0.1,0,0.3-0.1,0.4
		c-0.1,0.1-0.2,0.2-0.3,0.2c0,0-0.1,0-0.1,0s-0.1,0-0.1,0c0,0-0.1,0-0.1,0s-0.1,0-0.1,0h-1.1c-0.1,0-0.3,0-0.4,0c-0.1,0-0.3,0-0.4,0
		h-0.8c-0.1,0-0.3,0-0.4,0c-0.1,0-0.2,0-0.3,0h-1.2c-0.1,0-0.2,0-0.2,0c-0.1,0-0.1,0-0.2,0c0,0-0.1,0-0.1,0s-0.1,0-0.1,0
		c-0.1,0-0.1-0.1-0.2-0.1c0-0.1-0.1-0.1-0.1-0.2c0-0.1,0-0.2,0-0.3c0-0.1,0.1-0.3,0.2-0.4c0-0.1,0.1-0.1,0.2-0.1c0,0,0.1,0,0.1,0
		s0.1,0,0.1,0c0.1,0,0.1,0,0.1,0c0,0,0.1,0,0.1,0h4.5c0.1,0,0.2,0,0.2,0c0.1,0,0.1,0,0.2,0c0.1,0,0.1,0,0.2,0S37.4,10.6,37.4,10.6z
		 M32.4,8.7c-0.3-0.2-0.5-0.5-0.7-0.9c-0.1-0.2-0.1-0.4-0.2-0.6c0-0.2,0-0.4,0-0.6c0-0.2,0-0.4,0.1-0.6c0-0.2,0.1-0.4,0.1-0.5
		C31.8,5.3,31.9,5.2,32,5c0.1-0.1,0.2-0.3,0.3-0.4c0.1-0.1,0.3-0.2,0.4-0.3s0.3-0.2,0.5-0.2c0.2-0.1,0.3-0.1,0.5-0.2
		s0.4-0.1,0.6-0.1c0.1,0,0.3,0,0.4,0c0.1,0,0.1,0,0.2,0c0.1,0,0.1,0,0.2,0c0,0,0.1,0,0.1,0c0,0,0.1,0,0.1,0c0,0,0.1,0,0.1,0
		c0,0,0.1,0,0.1,0c0.1,0,0.2,0,0.2,0.1c0.1,0,0.2,0.1,0.2,0.1c0.1,0.1,0.3,0.1,0.4,0.2c0,0,0.1,0.1,0.2,0.1c0.1,0,0.1,0.1,0.2,0.2
		c0.1,0.1,0.3,0.3,0.3,0.4c0,0.1,0.1,0.2,0.1,0.2s0.1,0.2,0.1,0.3c0,0.1,0,0.2,0.1,0.3c0,0.1,0,0.2,0,0.3c0,0.1,0,0.2,0,0.3
		c0,0.1,0,0.2,0,0.3c0,0,0,0.1,0,0.2s0,0.1,0,0.2c0,0.1,0,0.1,0,0.2c0,0.1,0,0.1,0,0.2c0,0.3-0.1,0.6-0.3,0.9
		c-0.1,0.1-0.2,0.3-0.3,0.4c-0.1,0.1-0.2,0.2-0.4,0.3C36.2,8.9,36.1,9,36,9s-0.2,0.1-0.3,0.1c-0.1,0-0.2,0.1-0.3,0.1s-0.2,0-0.3,0.1
		c0,0-0.1,0-0.1,0s-0.1,0-0.1,0c0,0-0.1,0-0.1,0s-0.1,0-0.1,0h-0.2c0,0-0.1,0-0.1,0s-0.1,0-0.1,0c0,0-0.1,0-0.1,0s-0.1,0-0.1,0
		c-0.1,0-0.1,0-0.2,0s-0.1,0-0.2,0c-0.2,0-0.4-0.1-0.6-0.2C32.9,9,32.8,9,32.7,8.9S32.5,8.8,32.4,8.7z M33.1,6.4c0,0.1,0,0.3,0,0.5
		c0,0.2,0.1,0.3,0.2,0.5c0.2,0.2,0.4,0.4,0.7,0.5c0.1,0,0.2,0.1,0.3,0.1c0.1,0,0.2,0,0.3,0c0.1,0,0.1,0,0.2,0c0.1,0,0.1,0,0.2,0
		c0.1,0,0.1,0,0.2,0c0.1,0,0.1,0,0.2-0.1c0.1-0.1,0.3-0.2,0.4-0.4c0.1-0.1,0.1-0.2,0.1-0.2c0-0.1,0-0.2,0.1-0.2c0-0.1,0-0.3,0-0.4
		c0-0.1,0-0.2-0.1-0.4c0-0.1,0-0.1-0.1-0.2S35.7,6,35.7,5.9c0,0,0,0-0.1-0.1c0,0,0,0-0.1-0.1c0-0.1-0.1-0.1-0.1-0.2
		c-0.1,0-0.1-0.1-0.2-0.1c0,0-0.1,0-0.1-0.1c0,0-0.1,0-0.1,0c-0.2,0-0.4-0.1-0.6-0.1c-0.1,0-0.2,0-0.3,0c-0.1,0-0.2,0-0.3,0.1
		s-0.2,0.1-0.2,0.1s-0.1,0.1-0.2,0.2c-0.1,0.1-0.1,0.2-0.1,0.3C33.2,6.2,33.1,6.3,33.1,6.4z M40,6c0,0.2,0,0.3,0,0.5
		c0,0.2,0,0.3,0,0.5v1.9c0,0.2,0,0.4,0,0.5c0,0.2,0,0.3,0,0.5v1.4c0,0.1,0,0.3,0,0.4s0,0.2,0,0.3c0,0.1,0,0.2,0,0.2
		c0,0.1,0,0.1,0,0.2c0,0.1,0,0.2-0.1,0.3c0,0,0,0.1,0,0.1c0,0,0,0.1,0,0.1c0,0-0.1,0.1-0.1,0.1c0,0-0.1,0.1-0.1,0.1
		c-0.1,0.1-0.2,0.1-0.2,0.1s-0.2,0-0.3,0c-0.1,0-0.2-0.1-0.3-0.2c-0.1,0-0.1-0.1-0.2-0.2c0-0.1,0-0.1-0.1-0.2s0-0.1,0-0.2
		c0,0,0-0.1,0-0.1s0-0.1,0-0.1v-0.1l0-7c0-0.1,0-0.2,0-0.3s0-0.2,0-0.3c0-0.2,0.1-0.4,0.2-0.5c0.1-0.1,0.2-0.1,0.3-0.2
		c0.1,0,0.1,0,0.2,0c0.1,0,0.1,0,0.2,0c0.1,0,0.1,0,0.2,0c0.1,0,0.1,0,0.2,0.1c0.1,0.1,0.2,0.2,0.2,0.3c0,0.1,0.1,0.2,0.1,0.3
		c0,0.1,0,0.2,0,0.3c0,0.1,0,0.2,0,0.3c0,0.1,0,0.2,0,0.3V6z"/>
	<path class="st1" d="M47.6,5.1c0,0.2,0,0.3,0,0.5c0,0.1,0,0.2,0,0.3s0,0.2,0,0.2c0,0,0.1,0.1,0.2,0.2s0.2,0.2,0.3,0.2
		c0.1,0.1,0.2,0.1,0.2,0.2c0.1,0.1,0.2,0.2,0.3,0.2c0.1,0.1,0.1,0.1,0.2,0.2s0.1,0.1,0.1,0.1c0.1,0.1,0.3,0.3,0.5,0.5
		c0.1,0.2,0.3,0.4,0.3,0.5c0,0.1,0,0.1,0,0.2c0,0.1-0.1,0.2-0.2,0.2c-0.1,0.1-0.3,0.1-0.4,0.1c-0.2,0-0.3,0-0.5-0.1
		c-0.2-0.1-0.3-0.1-0.4-0.2c-0.2-0.1-0.3-0.2-0.4-0.3c-0.1-0.1-0.3-0.2-0.4-0.4c-0.1-0.1-0.2-0.2-0.3-0.3c-0.1-0.1-0.2-0.2-0.3-0.3
		l-0.3,0.3c-0.1,0.1-0.1,0.1-0.2,0.2s-0.1,0.1-0.2,0.2C46,8,45.9,8.1,45.8,8.2c-0.1,0.1-0.2,0.2-0.4,0.3c-0.3,0.2-0.6,0.4-0.9,0.4
		c0,0-0.1,0-0.1,0c0,0-0.1,0-0.1,0c-0.2,0-0.3-0.1-0.3-0.2c-0.1-0.1-0.1-0.2-0.1-0.3c0-0.1,0.1-0.2,0.1-0.3C44,8,44.1,7.9,44.2,7.8
		s0.2-0.2,0.2-0.3c0.1-0.1,0.2-0.2,0.3-0.3c0.2-0.1,0.3-0.3,0.5-0.4c0.2-0.2,0.3-0.3,0.4-0.4c0.1-0.1,0.2-0.2,0.2-0.2v-1h-0.8
		c-0.1,0-0.2,0-0.3,0c-0.1,0-0.3,0-0.4,0c-0.1,0-0.2,0-0.3-0.1C44,5,43.9,4.9,43.9,4.8c0-0.1-0.1-0.2-0.1-0.3s0-0.2,0-0.3
		C43.9,4,43.9,4,44,3.9c0.1,0,0.2-0.1,0.3-0.1c0,0,0.1,0,0.2,0s0.2,0,0.4,0s0.3,0,0.4,0c0.1,0,0.2,0,0.2,0h2.8c0.3,0,0.6,0,0.8,0.1
		c0.2,0,0.4,0.1,0.5,0.3c0,0,0.1,0.1,0.1,0.2s0,0.2,0,0.2s0,0.2-0.1,0.2c0,0.1-0.1,0.1-0.1,0.2c-0.1,0-0.1,0-0.2,0.1s-0.2,0-0.2,0.1
		c-0.1,0-0.2,0-0.3,0c-0.1,0-0.2,0-0.3,0H47.6z M51.4,9.9c0.3,0,0.6,0.1,0.7,0.2c0.2,0.1,0.2,0.3,0.2,0.5v0.7c0,0,0,0.1,0,0.2
		s0,0.2,0,0.3s0,0.2,0,0.3c0,0.1,0,0.1,0,0.2c0,0.1,0,0.2,0,0.3s0,0.2,0,0.3c0,0.2-0.1,0.3-0.2,0.4c-0.1,0.1-0.3,0.2-0.4,0.2
		c0,0-0.1,0-0.2,0c-0.1,0-0.2,0-0.2,0c-0.1,0-0.2-0.1-0.3-0.1c-0.1-0.1-0.1-0.1-0.1-0.2c0-0.1-0.1-0.2-0.1-0.3s0-0.2,0-0.3
		c0,0,0-0.1,0-0.2s0-0.2,0-0.3c0-0.1,0-0.2,0-0.3s0-0.2,0-0.2c0,0-0.1,0-0.2,0c-0.1,0-0.3,0-0.6,0c-0.3,0-0.4,0-0.5,0
		c-0.1,0-0.1,0-0.1,0h-4.3c0,0,0,0-0.1,0s-0.1,0-0.2-0.1c-0.1,0-0.1-0.1-0.2-0.1c-0.1-0.1-0.1-0.1-0.1-0.2c0-0.3,0-0.5,0.1-0.7
		c0.1-0.1,0.2-0.2,0.3-0.2c0.1,0,0.2,0,0.2,0H51.4z M52.3,7.2v1.1c0,0.1,0,0.2,0,0.3c0,0.1,0,0.2-0.1,0.3c0,0.1-0.1,0.2-0.2,0.2
		c-0.1,0-0.1,0.1-0.2,0.1c-0.1,0-0.2,0-0.2,0c-0.1,0-0.1,0-0.2,0c-0.1,0-0.1,0-0.2-0.1C51.1,9.1,51,9,51,8.9c0-0.1-0.1-0.1-0.1-0.2
		s0-0.2-0.1-0.3V4.6c0,0,0-0.1,0-0.3s0-0.3,0.1-0.4c0-0.1,0.1-0.1,0.2-0.2c0.1,0,0.2-0.1,0.3-0.1c0.1,0,0.3,0,0.4,0
		c0.1,0,0.2,0.1,0.3,0.2c0,0.1,0.1,0.1,0.1,0.2c0,0.1,0,0.1,0.1,0.2c0,0.1,0,0.2,0,0.2s0,0.2,0,0.3v0.8v0.1c0,0,0,0.1,0,0.1
		s0,0.1,0,0.1c0,0,0.1,0,0.2,0s0.2,0,0.3,0s0.2,0,0.3,0c0.1,0,0.1,0,0.2,0c0.2,0,0.3,0.1,0.3,0.1c0.1,0.1,0.1,0.1,0.1,0.2
		c0,0.1,0,0.2,0,0.3c0,0.1,0,0.2-0.1,0.3c-0.1,0.2-0.2,0.2-0.4,0.3c-0.2,0-0.4,0-0.6,0H52.3z"/>
	<path class="st1" d="M61.5,8.4c0.1,0,0.3,0,0.4,0s0.3,0,0.4,0s0.2,0.1,0.3,0.2c0.1,0.1,0.1,0.3,0.1,0.5c0,0.2-0.1,0.4-0.2,0.5
		c-0.1,0.1-0.3,0.2-0.5,0.2s-0.3,0-0.5,0c0,0-0.1,0-0.1,0c0,0-0.1,0-0.1,0h-6.5c0,0,0,0-0.1,0c-0.1,0-0.1,0-0.2,0
		c-0.1,0-0.2,0-0.3-0.1c-0.1,0-0.2-0.1-0.2-0.1c-0.1-0.1-0.1-0.2-0.1-0.4c0-0.2,0.1-0.3,0.2-0.4c0.1-0.1,0.2-0.2,0.3-0.2
		c0.1-0.1,0.2-0.1,0.3-0.1c0,0,0,0,0.1,0c0,0,0,0,0.1,0c0.1,0,0.2,0,0.4,0s0.3,0,0.4,0c0.4,0,0.8,0,1.2,0s0.9,0,1.3,0
		c0.5,0,1,0,1.6,0S60.9,8.3,61.5,8.4L61.5,8.4z M61.9,11.7C61.9,11.7,61.9,11.7,61.9,11.7c0.1,0,0.2,0.1,0.2,0.1
		c0.1,0,0.1,0.1,0.2,0.1c0.1,0.1,0.1,0.1,0.1,0.2c0,0.3,0,0.5-0.1,0.7c-0.1,0.1-0.2,0.2-0.3,0.2c-0.1,0-0.2,0-0.2,0h-6.5
		c-0.3,0-0.5,0-0.7-0.1c-0.2-0.1-0.3-0.2-0.3-0.4v-1.1c0-0.2,0-0.4,0-0.5c0-0.2,0.1-0.3,0.2-0.4c0.1-0.1,0.2-0.2,0.4-0.2
		c0,0,0.1,0,0.2,0c0.1,0,0.1,0,0.2,0c0.1,0,0.2,0.1,0.2,0.1c0.1,0.1,0.1,0.1,0.1,0.2c0,0.1,0.1,0.2,0.1,0.3c0,0.1,0,0.2,0,0.3
		c0,0.1,0,0.1,0,0.2c0,0.1,0,0.1,0,0.2c0,0,0.1,0,0.2,0c0.1,0,0.3,0,0.6,0c0.2,0,0.4,0,0.6,0c0.2,0,0.3,0,0.3,0H61.9z M58.4,7.6
		c-0.6,0-1.1,0-1.6-0.1c-0.5-0.1-0.9-0.2-1.3-0.3s-0.6-0.4-0.8-0.6c-0.2-0.3-0.3-0.6-0.3-1.1c0-0.4,0.1-0.7,0.3-1
		c0.2-0.3,0.5-0.5,0.8-0.6c0.4-0.2,0.8-0.3,1.3-0.3c0.5-0.1,1-0.1,1.6-0.1s1.1,0,1.6,0.1c0.5,0.1,0.9,0.1,1.3,0.3s0.6,0.4,0.8,0.6
		c0.2,0.3,0.3,0.6,0.3,1.1c0,0.4-0.1,0.8-0.3,1.1s-0.5,0.5-0.8,0.6s-0.8,0.3-1.3,0.3C59.5,7.6,58.9,7.6,58.4,7.6z M58.4,4.8
		c-0.3,0-0.6,0-0.9,0c-0.3,0-0.5,0.1-0.8,0.1C56.5,5,56.3,5,56.2,5.1c-0.1,0.1-0.2,0.2-0.2,0.4c0,0.3,0.2,0.5,0.6,0.6
		c0.4,0.1,1,0.2,1.8,0.2c0.3,0,0.6,0,0.9,0c0.3,0,0.5,0,0.8-0.1s0.4-0.1,0.6-0.2c0.1-0.1,0.2-0.2,0.2-0.4c0-0.1-0.1-0.3-0.2-0.4
		C60.4,5,60.2,5,60,4.9c-0.2-0.1-0.5-0.1-0.8-0.1C58.9,4.8,58.6,4.8,58.4,4.8z"/>
	<path class="st1" d="M70.1,8.8c-0.1,0-0.2,0-0.4,0s-0.4,0-0.6,0c-0.2,0-0.4,0-0.6,0s-0.3,0-0.4,0h0c-0.1,0-0.3,0-0.4,0
		s-0.3,0-0.4,0c-0.1,0-0.2-0.1-0.3-0.1s-0.2-0.1-0.2-0.2c-0.1-0.1-0.1-0.2-0.1-0.4c0-0.2,0-0.3-0.1-0.5s0-0.3,0-0.4
		c0-0.1,0-0.2,0-0.2V6.8c0-0.1,0-0.2,0-0.3c0-0.1,0-0.2,0-0.4c0-0.1,0-0.3,0-0.4s0-0.3,0-0.4V4.9c0,0,0-0.1,0-0.1c0-0.1,0-0.1,0-0.2
		c0-0.1,0-0.1,0-0.2c0-0.1,0-0.1,0.1-0.2c0.1-0.1,0.1-0.2,0.2-0.2c0.1-0.1,0.2-0.1,0.3-0.1c0,0,0.1,0,0.2,0c0.1,0,0.2,0,0.2,0
		c0.1,0,0.2,0,0.3,0h2.7c0.2,0,0.4,0,0.6,0c0.2,0,0.4,0.1,0.5,0.2c0.1,0.1,0.2,0.2,0.2,0.3s0.1,0.2,0.1,0.4c0,0.1,0,0.3,0,0.4
		c0,0.1,0,0.3,0,0.4c0,0.1,0,0.3,0,0.4c0,0.1,0,0.2,0,0.4v0.7c0,0,0,0.1,0,0.1c0,0,0,0.1,0,0.1c0,0.1,0,0.2,0,0.3c0,0.1,0,0.2,0,0.3
		c0,0.1,0,0.2,0,0.3c0,0.1,0,0.2-0.1,0.3c0,0.1-0.1,0.2-0.1,0.3c-0.1,0.1-0.1,0.1-0.2,0.2c-0.2,0.1-0.4,0.1-0.6,0.1
		C70.5,8.8,70.3,8.8,70.1,8.8z M68.8,13.1c-0.3,0-0.6-0.1-0.8-0.2s-0.3-0.3-0.3-0.5v-1.7c0-0.2,0-0.4,0-0.5c0-0.2,0.1-0.3,0.2-0.4
		s0.3-0.2,0.4-0.2c0,0,0.1,0,0.2,0s0.2,0,0.2,0c0.1,0,0.2,0.1,0.2,0.1c0.1,0.1,0.1,0.1,0.1,0.2c0,0.1,0.1,0.2,0.1,0.3
		c0,0.1,0,0.2,0,0.3c0,0,0,0.1,0,0.2c0,0.1,0,0.2,0,0.4c0,0.1,0,0.3,0,0.4c0,0.1,0,0.2,0,0.2c0,0,0.1,0,0.2,0c0.1,0,0.3,0,0.6,0
		c0.3,0,0.4,0,0.5,0c0.1,0,0.1,0,0.1,0h3.9c0.1,0,0.2,0.1,0.2,0.1c0.1,0,0.1,0.1,0.2,0.1C75,12,75,12.1,75,12.2c0,0.3,0,0.5-0.2,0.7
		c-0.1,0.1-0.2,0.2-0.3,0.2c-0.1,0-0.2,0-0.2,0H68.8z M68.5,5.3c-0.1,0-0.1,0-0.2,0c-0.1,0-0.1,0-0.2,0c-0.1,0-0.2,0.1-0.3,0.1
		c0,0,0,0.1-0.1,0.2c0,0.1,0,0.1,0,0.1v0.5c0,0.1,0,0.1,0,0.2c0,0.1,0,0.1,0,0.1v0.1c0,0.1,0,0.2,0,0.2c0,0.1,0,0.1,0,0.2
		c0,0.1,0,0.1,0.1,0.2c0.1,0.1,0.2,0.1,0.3,0.1s0.3,0,0.4,0h0c0.2,0,0.4,0,0.5,0c0.1,0,0.3,0,0.5,0c0.1,0,0.1,0,0.2,0
		c0.1,0,0.1,0,0.2,0c0.1,0,0.1,0,0.1-0.1c0,0,0-0.1,0.1-0.1c0-0.1,0-0.1,0-0.2c0-0.1,0-0.3,0-0.5c0-0.1,0-0.3,0-0.4
		c0-0.1,0-0.3,0-0.4c0-0.1,0-0.1,0-0.2s0-0.1,0-0.2c0-0.1-0.1-0.1-0.2-0.1c-0.1,0-0.1,0-0.2,0L68.5,5.3z M74.8,7.4v1.2
		c0,0.1,0,0.2,0,0.3c0,0.1,0,0.2-0.1,0.3c-0.1,0.1-0.1,0.2-0.2,0.2c-0.1,0.1-0.3,0.1-0.4,0.1c-0.1,0-0.2,0-0.3-0.1
		c-0.1,0-0.1-0.1-0.2-0.2c0-0.1-0.1-0.1-0.1-0.2s0-0.1-0.1-0.2V4.6c0,0,0-0.1,0-0.3c0-0.1,0-0.3,0.1-0.3c0.1-0.2,0.2-0.3,0.5-0.3
		c0.1,0,0.3,0,0.4,0c0.1,0,0.2,0.1,0.3,0.2c0,0.1,0.1,0.1,0.1,0.2c0,0.1,0,0.1,0.1,0.2c0,0.1,0,0.2,0,0.2c0,0.1,0,0.2,0,0.3v1.3
		c0,0,0.1,0,0.2,0c0.1,0,0.2,0,0.2,0s0.2,0,0.2,0c0.1,0,0.1,0,0.2,0c0.2,0,0.3,0.1,0.3,0.1C76,6.3,76,6.4,76,6.5c0,0.1,0,0.2,0,0.3
		S76,7,76,7.1c-0.1,0.2-0.2,0.2-0.4,0.3c-0.2,0-0.4,0-0.6,0H74.8z"/>
	<path class="st1" d="M77.9,8.8c-0.2,0-0.4,0-0.6-0.1c-0.1-0.1-0.3-0.2-0.4-0.3c-0.2-0.2-0.2-0.4-0.2-0.7c0-0.3,0-0.7,0-1.1
		c0-0.4,0-0.8,0-1.1c0-0.2,0-0.4,0-0.6s0-0.4,0.1-0.6c0.1-0.1,0.1-0.2,0.3-0.3c0.1-0.1,0.2-0.1,0.4-0.1c0.1,0,0.2,0,0.4,0
		c0.1,0,0.2,0.1,0.3,0.2c0.1,0.2,0.2,0.5,0.2,0.8s0,0.5,0,0.8c0,0.1,0,0.2,0,0.3c0,0.1,0,0.3,0,0.4s0,0.3,0,0.4c0,0.1,0,0.2,0,0.3
		c0,0.1,0,0.2,0.1,0.2s0.1,0.1,0.1,0.1c0.1,0,0.1,0,0.2,0c0.1,0,0.1,0,0.2,0l2.4,0.1c0.1,0,0.2,0,0.3,0.1c0.1,0.1,0.1,0.1,0.1,0.2
		c0,0.1,0.1,0.2,0.1,0.3c0,0.1,0,0.2,0,0.2c0,0.2-0.1,0.3-0.3,0.4c-0.2,0.1-0.3,0.1-0.6,0.1H77.9z M77,13C77,13,77,13,77,13
		c-0.1-0.1-0.2-0.2-0.2-0.3c0-0.1,0-0.2,0-0.3c0-0.1,0-0.3,0-0.4s0-0.3,0-0.4c0-0.2,0-0.4,0-0.6s0-0.4,0.1-0.6
		c0-0.1,0.1-0.2,0.1-0.3c0.1-0.1,0.1-0.1,0.3-0.2c0.2-0.1,0.4-0.1,0.7-0.1h5.6c0.1,0,0.3,0,0.5,0c0.2,0,0.3,0.1,0.5,0.1
		c0.2,0.1,0.3,0.2,0.3,0.3c0.1,0.1,0.1,0.3,0.1,0.5c0,0.1,0,0.3,0,0.5c0,0.2,0,0.4,0,0.5s0,0.4,0,0.5c0,0.2,0,0.3-0.1,0.5
		c0,0.1-0.1,0.2-0.1,0.2c0,0.1-0.1,0.1-0.2,0.1c-0.1,0-0.2,0.1-0.3,0.1s-0.2,0-0.3,0l-6.2,0c-0.1,0-0.2,0-0.3,0
		C77.2,13.1,77.1,13.1,77,13z M78.1,11.6c0,0,0,0.1,0,0.1c0,0,0,0.1,0,0.1c0,0,0,0,0.1,0c0,0,0.1,0,0.1,0s0.1,0,0.1,0h3.7
		c0.1,0,0.2,0,0.3,0c0.1,0,0.2,0,0.3,0s0.2,0,0.3,0c0.1,0,0.1,0,0.1-0.1c0,0,0-0.1,0-0.2c0-0.1,0-0.1,0-0.2c0-0.1,0-0.2-0.1-0.2
		c-0.1-0.1-0.1-0.1-0.2-0.1c-0.1,0-0.2,0-0.3,0h-3.3c-0.2,0-0.3,0-0.5,0c-0.2,0-0.3,0-0.5,0c-0.1,0-0.1,0-0.1,0s-0.1,0-0.1,0.1
		c0,0.1,0,0.1,0,0.2s0,0.1,0,0.1C78.1,11.5,78.2,11.5,78.1,11.6C78.1,11.6,78.1,11.6,78.1,11.6z M84.5,7.2v1.1c0,0.1,0,0.2,0,0.3
		c0,0.1,0,0.2-0.1,0.3c0,0.1-0.1,0.2-0.2,0.2c-0.1,0-0.1,0.1-0.2,0.1c-0.1,0-0.2,0-0.2,0s-0.1,0-0.2,0c-0.1,0-0.1,0-0.2-0.1
		c-0.1,0-0.1-0.1-0.2-0.2c0-0.1-0.1-0.1-0.1-0.2c0-0.1,0-0.2-0.1-0.3V4.6c0,0,0-0.1,0-0.3c0-0.1,0-0.3,0.1-0.4
		c0-0.1,0.1-0.1,0.2-0.2s0.2-0.1,0.3-0.1c0.1,0,0.3,0,0.4,0c0.1,0,0.2,0.1,0.3,0.2c0,0.1,0.1,0.1,0.1,0.2c0,0.1,0,0.1,0.1,0.2
		c0,0.1,0,0.2,0,0.2s0,0.2,0,0.3v0.8v0.1c0,0,0,0.1,0,0.1c0,0,0,0.1,0,0.1c0,0,0.1,0,0.2,0c0.1,0,0.2,0,0.3,0s0.2,0,0.3,0
		c0.1,0,0.1,0,0.2,0c0.2,0,0.3,0.1,0.3,0.1c0.1,0.1,0.1,0.1,0.1,0.2c0,0.1,0,0.2,0,0.3c0,0.1,0,0.2-0.1,0.3
		c-0.1,0.2-0.2,0.2-0.4,0.3s-0.4,0-0.6,0H84.5z"/>
</g>
</svg>
