<?xml version="1.0" encoding="UTF-8"?>
<svg width="38px" height="38px" viewBox="0 0 38 38" version="1.1" xmlns="http://www.w3.org/2000/svg" xmlns:xlink="http://www.w3.org/1999/xlink">
    <!-- Generator: sketchtool 52.6 (67491) - http://www.bohemiancoding.com/sketch -->
    <title>B3AB2444-5984-42F6-A79A-4692A8085C94</title>
    <desc>Created with sketchtool.</desc>
    <defs>
        <path d="M10.0257885,9.66562481 L25.250789,9.66562481 C25.5143719,9.66562481 25.7265703,9.87782326 25.7265703,10.1414061 C25.7265703,10.4049889 25.5143719,10.6171873 25.250789,10.6171873 L10.0257885,10.6171873 C9.76220572,10.6171873 9.55000728,10.4049889 9.55000728,10.1414061 C9.55000728,9.87782326 9.76220572,9.66562481 10.0257885,9.66562481 Z M30.0086017,10.0265623 C29.3805704,10.0265623 29.3881829,10.9781248 30.0086017,10.9781248 L30.9601642,10.9781248 C32.8061955,10.9781248 34.2906331,12.4625624 34.2906331,14.3085937 C34.2906331,16.154625 32.8061955,17.6390625 30.9601642,17.6390625 L30.0086017,17.6390625 C29.3834251,17.6390625 29.3843767,18.5906251 30.0086017,18.5906251 L30.9601642,18.5906251 C33.3200393,18.5906251 35.2421956,16.6684687 35.2421956,14.3085937 C35.2421956,11.9487186 33.3200393,10.0265623 30.9601642,10.0265623 L30.0086017,10.0265623 Z M7.17110095,8.12343722 C6.90846969,8.12724347 6.69151344,8.33658723 6.69531969,8.59921848 L6.69531969,20.0179689 C6.69531969,24.4807971 9.35779165,28.3060785 13.1811699,30.0093754 L7.17110095,30.0093754 C6.90751813,30.0093754 6.69531969,30.2215739 6.69531969,30.4851567 C6.69531969,30.7487395 6.90751813,30.960938 7.17110095,30.960938 L28.1054766,30.960938 C28.3690595,30.960938 28.5812579,30.7487395 28.5812579,30.4851567 C28.5812579,30.2215739 28.3690595,30.0093754 28.1054766,30.0093754 L22.0954077,30.0093754 C25.9187859,28.3060785 28.5812579,24.4807971 28.5812579,20.0179689 L28.5812579,8.59921848 C28.5812579,7.97879971 27.6296954,7.96167159 27.6296954,8.59921848 L27.6296954,20.0179689 C27.6296954,25.5617722 23.1820921,30.0093754 17.6382888,30.0093754 C12.0944855,30.0093754 7.64688222,25.5617722 7.64688222,20.0179689 L7.64688222,8.59921848 C7.65068847,8.33087785 7.43944158,8.11963097 7.17110095,8.12343722 Z" id="path-1"></path>
    </defs>
    <g id="Symbols" stroke="none" stroke-width="1" fill="none" fill-rule="evenodd">
        <g id="icon/giftcon">
            <g>
                <rect id="Rectangle" fill-rule="nonzero" x="0" y="0" width="38" height="38"></rect>
                <mask id="mask-2" fill="white">
                    <use xlink:href="#path-1"></use>
                </mask>
                <use id="Icon" fill="#000000" fill-rule="nonzero" xlink:href="#path-1"></use>
            </g>
        </g>
    </g>
</svg>