<?xml version="1.0" encoding="UTF-8"?>
<svg width="36px" height="36px" viewBox="0 0 36 36" version="1.1" xmlns="http://www.w3.org/2000/svg" xmlns:xlink="http://www.w3.org/1999/xlink">
    <!-- Generator: sketchtool 52.6 (67491) - http://www.bohemiancoding.com/sketch -->
    <title>78304AF2-4733-4FD5-9F91-F9985651C694</title>
    <desc>Created with sketchtool.</desc>
    <defs>
        <path d="M15.7342502,20.7188998 L27.5161494,20.7188998 C27.7671945,20.7188998 27.9692993,20.9210047 27.9692993,21.1720498 C27.9692993,21.4230949 27.7671945,21.6251998 27.5161494,21.6251998 L15.7342502,21.6251998 C15.4832051,21.6251998 15.2811002,21.4230949 15.2811002,21.1720498 C15.2811002,20.9210047 15.4832051,20.7188998 15.7342502,20.7188998 Z M15.7342502,18 L27.5161494,18 C27.7671945,18 27.9692993,18.2021049 27.9692993,18.45315 C27.9692993,18.7041951 27.7671945,18.9062999 27.5161494,18.9062999 L15.7342502,18.9062999 C15.4832051,18.9062999 15.2811002,18.7041951 15.2811002,18.45315 C15.2811002,18.2021049 15.4832051,18 15.7342502,18 Z M9.39015057,16.1874001 C8.64517202,16.1874001 8.03070066,16.8018715 8.03070066,17.54685 L8.03070066,22.0783497 C8.03070066,22.8233283 8.64517202,23.4377996 9.39015057,23.4377996 L12.1090504,23.4377996 C12.8540289,23.4377996 13.4685003,22.8233283 13.4685003,22.0783497 L13.4685003,17.54685 C13.4685003,16.8018715 12.8540289,16.1874001 12.1090504,16.1874001 L9.39015057,16.1874001 Z M9.39015057,17.0937001 L12.1090504,17.0937001 C12.3682522,17.0937001 12.5622004,17.2876482 12.5622004,17.54685 L12.5622004,22.0783497 C12.5622004,22.3375515 12.3682522,22.5314997 12.1090504,22.5314997 L9.39015057,22.5314997 C9.13094879,22.5314997 8.9370006,22.3375515 8.9370006,22.0783497 L8.9370006,17.54685 C8.9370006,17.2876482 9.13094879,17.0937001 9.39015057,17.0937001 Z M6.67125075,11.6559004 L29.3287492,11.6559004 C29.5797943,11.6559004 29.7818992,11.8580053 29.7818992,12.1090504 C29.7818992,12.3600955 29.5797943,12.5622004 29.3287492,12.5622004 L6.67125075,12.5622004 C6.42020567,12.5622004 6.21810078,12.3600955 6.21810078,12.1090504 C6.21810078,11.8580053 6.42020567,11.6559004 6.67125075,11.6559004 Z M10.7496005,10.2964505 C10.7496005,10.5467183 10.5467183,10.7496005 10.2964505,10.7496005 C10.0461827,10.7496005 9.84330054,10.5467183 9.84330054,10.2964505 C9.84330054,10.0461827 10.0461827,9.84330054 10.2964505,9.84330054 C10.5467183,9.84330054 10.7496005,10.0461827 10.7496005,10.2964505 Z M8.9370006,10.2964505 C8.9370006,10.5467183 8.73411845,10.7496005 8.48385063,10.7496005 C8.23358282,10.7496005 8.03070066,10.5467183 8.03070066,10.2964505 C8.03070066,10.0461827 8.23358282,9.84330054 8.48385063,9.84330054 C8.73411845,9.84330054 8.9370006,10.0461827 8.9370006,10.2964505 Z M7.12440072,10.2964505 C7.12440072,10.5467183 6.92151857,10.7496005 6.67125075,10.7496005 C6.42098294,10.7496005 6.21810078,10.5467183 6.21810078,10.2964505 C6.21810078,10.0461827 6.42098294,9.84330054 6.67125075,9.84330054 C6.92151857,9.84330054 7.12440072,10.0461827 7.12440072,10.2964505 Z M5.76495081,8.03070066 C5.01997226,8.03070066 4.4055009,8.64517202 4.4055009,9.39015057 L4.4055009,26.6098494 C4.4055009,27.354828 5.01997226,27.9692993 5.76495081,27.9692993 L30.2350492,27.9692993 C30.9800277,27.9692993 31.5944991,27.354828 31.5944991,26.6098494 L31.5944991,9.39015057 C31.5944991,8.64517202 30.9800277,8.03070066 30.2350492,8.03070066 L5.76495081,8.03070066 Z M5.76495081,8.9370006 L30.2350492,8.9370006 C30.494251,8.9370006 30.6881992,9.13094879 30.6881992,9.39015057 L30.6881992,26.6098494 C30.6881992,26.8690512 30.494251,27.0629994 30.2350492,27.0629994 L5.76495081,27.0629994 C5.50574903,27.0629994 5.31180084,26.8690512 5.31180084,26.6098494 L5.31180084,9.39015057 C5.31180084,9.13094879 5.50574903,8.9370006 5.76495081,8.9370006 Z" id="path-1"></path>
    </defs>
    <g id="Symbols" stroke="none" stroke-width="1" fill="none" fill-rule="evenodd">
        <g id="icon/eventmanage_blue">
            <g>
                <mask id="mask-2" fill="white">
                    <use xlink:href="#path-1"></use>
                </mask>
                <use id="Icon" fill="#4195F5" fill-rule="nonzero" xlink:href="#path-1"></use>
            </g>
        </g>
    </g>
</svg>