<?xml version="1.0" encoding="UTF-8"?>
<svg width="36px" height="36px" viewBox="0 0 36 36" version="1.1" xmlns="http://www.w3.org/2000/svg" xmlns:xlink="http://www.w3.org/1999/xlink">
    <!-- Generator: sketchtool 52.6 (67491) - http://www.bohemiancoding.com/sketch -->
    <title>60FDFCA1-EAAC-4611-ABCC-95A36C9C92E8</title>
    <desc>Created with sketchtool.</desc>
    <defs>
        <path d="M16.65,28.8000002 C16.4016,28.8036002 16.1964,29.0016002 16.2,29.2500002 L16.2,29.7000002 C16.2,30.6900002 17.01,31.5000002 18,31.5000002 C18.99,31.5000002 19.8,30.6900002 19.8,29.7000002 L19.8,29.2500002 C19.8,28.9503002 19.575,28.8000002 19.35,28.8000002 C19.125,28.8000002 18.9,28.9458002 18.9,29.2500002 L18.9,29.7000002 C18.9,30.2067002 18.5067,30.6000002 18,30.6000002 C17.4933,30.6000002 17.1,30.2067002 17.1,29.7000002 L17.1,29.2500002 C17.1036,28.9962002 16.9038,28.7964002 16.65,28.8000002 Z M18,4.4999998 C16.515,4.4999998 15.3,5.71499982 15.3,7.19999984 L15.3,7.64999985 C15.3,8.23499985 16.2,8.24399985 16.2,7.64999985 L16.2,7.19999984 C16.2,6.20099982 17.001,5.39999981 18,5.39999981 C18.999,5.39999981 19.8,6.20099982 19.8,7.19999984 L19.8,7.64999985 C19.8,8.23859985 20.7,8.24399985 20.7,7.64999985 L20.7,7.19999984 C20.7,5.71499982 19.485,4.4999998 18,4.4999998 Z M24.7500001,7.19999984 C27.4806001,7.19999984 29.7000002,9.42119987 29.7000002,12.1499999 C29.7000002,12.7484999 28.8000002,12.7484999 28.8000002,12.1499999 C28.8000002,9.90899988 26.9946001,8.09999985 24.7500001,8.09999985 C24.1497001,8.09999985 24.1533001,7.19999984 24.7500001,7.19999984 Z M11.2499999,7.19999984 C8.52119986,7.19999984 6.29999983,9.42119987 6.29999983,12.1499999 C6.29999983,12.7484999 7.19999984,12.7484999 7.19999984,12.1499999 C7.19999984,9.90899988 9.00899987,8.09999985 11.2499999,8.09999985 C11.8511999,8.09999985 11.8484999,7.19999984 11.2499999,7.19999984 Z M18,8.99999987 C14.1119999,8.99999987 11.9807999,10.6289999 10.9457999,12.6917999 C9.91079988,14.7546 9.89999988,17.1864 9.89999988,18.9 C9.89999988,20.7 9.89999988,24.1353001 7.30799984,27.1566001 C7.19323881,27.2900566 7.16682119,27.4781712 7.24038457,27.6380747 C7.31394796,27.7979783 7.47398671,27.9003139 7.64999985,27.9000001 L28.3500002,27.9000001 C28.5260133,27.9003139 28.686052,27.7979783 28.7596154,27.6380747 C28.8331788,27.4781712 28.8067612,27.2900566 28.6920002,27.1566001 C26.1000001,24.1353001 26.1000001,20.7 26.1000001,18.9 C26.1000001,17.1864 26.0883001,14.7546 25.0542001,12.6917999 C24.0192001,10.6289999 21.8880001,8.99999987 18,8.99999987 Z M18,9.89999988 C21.6486001,9.89999988 23.3433001,11.2886999 24.2487001,13.0949999 C25.1550001,14.904 25.2000001,17.1972 25.2000001,18.9 C25.2000001,20.5668 25.2963001,23.9103001 27.5274001,27.0000001 L8.47259986,27.0000001 C10.7045999,23.9103001 10.7999999,20.5668 10.7999999,18.9 C10.7999999,17.1963 10.8449999,14.904 11.7512999,13.0949999 C12.6566999,11.2895999 14.3522999,9.89999988 18,9.89999988 Z" id="path-1"></path>
    </defs>
    <g id="Symbols" stroke="none" stroke-width="1" fill="none" fill-rule="evenodd">
        <g id="icon/notice_black">
            <g>
                <mask id="mask-2" fill="white">
                    <use xlink:href="#path-1"></use>
                </mask>
                <use id="Icon" fill="#000000" fill-rule="nonzero" xlink:href="#path-1"></use>
            </g>
        </g>
    </g>
</svg>