<?xml version="1.0" encoding="UTF-8"?>
<svg width="38px" height="38px" viewBox="0 0 38 38" version="1.1" xmlns="http://www.w3.org/2000/svg" xmlns:xlink="http://www.w3.org/1999/xlink">
    <!-- Generator: sketchtool 53 (72520) - https://sketchapp.com -->
    <title>59A37D70-E78A-4AB6-87EA-6521D39170EE</title>
    <desc>Created with sketchtool.</desc>
    <g id="Symbols" stroke="none" stroke-width="1" fill="none" fill-rule="evenodd">
        <g id="icon/ad">
            <g transform="translate(3.000000, 6.000000)">
                <path d="M2.4502,0.4502 L26.5502,0.4502 C27.6542,0.4502 28.5502,1.3452 28.5502,2.4502 L28.5502,17.5502 C28.5502,18.6542 27.6542,19.5502 26.5502,19.5502 L2.4502,19.5502 C1.3452,19.5502 0.4502,18.6542 0.4502,17.5502 L0.4502,2.4502 C0.4502,1.3452 1.3452,0.4502 2.4502,0.4502 Z" id="Stroke-1" stroke="#333333" stroke-width="0.9"></path>
                <path d="M24.4004,8.3999 L32.5994,8.3999 C33.1524,8.3999 33.5994,8.8479 33.5994,9.3999 L33.5994,22.5999 C33.5994,23.1519 33.1524,23.5999 32.5994,23.5999 L24.4004,23.5999 C23.8474,23.5999 23.4004,23.1519 23.4004,22.5999 L23.4004,9.3999 C23.4004,8.8479 23.8474,8.3999 24.4004,8.3999" id="Fill-3" fill="#FFFFFF"></path>
                <path d="M24.4004,8.3999 L32.5994,8.3999 C33.1524,8.3999 33.5994,8.8479 33.5994,9.3999 L33.5994,22.5999 C33.5994,23.1519 33.1524,23.5999 32.5994,23.5999 L24.4004,23.5999 C23.8474,23.5999 23.4004,23.1519 23.4004,22.5999 L23.4004,9.3999 C23.4004,8.8479 23.8474,8.3999 24.4004,8.3999 Z" id="Stroke-5" stroke="#333333" stroke-width="0.8"></path>
                <path d="M28.5996,20.9004 C28.9866,20.8994 29.2996,21.2124 29.3006,21.5994 C29.3006,21.9864 28.9876,22.2994 28.6006,22.2994 L28.5996,22.2994 C28.2136,22.2994 27.9006,21.9864 27.9006,21.5994 C27.9006,21.2124 28.2136,20.9004 28.5996,20.9004 M14.7006,16.4244 C15.0866,16.4244 15.4006,16.7384 15.4006,17.1244 C15.4006,17.5104 15.0876,17.8254 14.7016,17.8254 L14.7006,17.8254 C14.3136,17.8254 13.9996,17.5104 14.0006,17.1244 C14.0006,16.7384 14.3136,16.4244 14.7006,16.4244 M0.9696,14.4504 L20.9306,14.4504 C21.2166,14.4504 21.4506,14.6514 21.4506,14.9004 C21.4506,15.1484 21.2166,15.3494 20.9306,15.3494 L0.9696,15.3494 C0.6826,15.3494 0.4506,15.1484 0.4506,14.9004 C0.4506,14.6514 0.6826,14.4504 0.9696,14.4504 M8.5596,25.4504 L20.4406,25.4504 C20.6886,25.4504 20.8896,25.6514 20.8896,25.9004 C20.8896,26.1484 20.6886,26.3494 20.4406,26.3494 L8.5596,26.3494 C8.3116,26.3494 8.1096,26.1484 8.1096,25.9004 C8.1096,25.6514 8.3116,25.4504 8.5596,25.4504" id="Fill-7" fill="#333333"></path>
                <path d="M11.3999,19.4687 L11.3999,25.9007 L11.3999,19.4687 Z M17.3999,19.4687 L17.3999,25.9007 L17.3999,19.4687 Z" id="Stroke-9" stroke="#333333" stroke-width="0.8"></path>
                <path d="M30.2207,10.5879 L29.2537,10.5879 L28.9097,10.5879 L28.2867,10.5879 L27.9447,10.5879 L26.9777,10.5879 C26.8077,10.5879 26.6677,10.7289 26.6677,10.8999 C26.6677,11.0719 26.8067,11.2109 26.9787,11.2119 L27.9457,11.2119 L28.2877,11.2119 L28.9107,11.2119 L29.2547,11.2119 L30.2217,11.2119 C30.3937,11.2109 30.5327,11.0719 30.5327,10.8999 C30.5327,10.7279 30.3927,10.5879 30.2207,10.5879" id="Fill-11" fill="#333333"></path>
            </g>
        </g>
    </g>
</svg>