<svg xmlns="http://www.w3.org/2000/svg" xmlns:xlink="http://www.w3.org/1999/xlink" width="16" height="13" viewBox="0 0 16 13">
    <defs>
        <path id="a" d="M0 0h16v13H0z"/>
    </defs>
    <g fill="none" fill-rule="evenodd">
        <mask id="b" fill="#fff">
            <use xlink:href="#a"/>
        </mask>
        <path fill="#FFF" d="M11.996 0c-1.024 0-2.05.365-2.83 1.096L8 2.418 6.835 1.096A4.135 4.135 0 0 0 4.004 0c-1.025 0-2.05.365-2.832 1.096-1.563 1.46-1.563 3.83 0 5.29L8 13l6.828-6.613c1.563-1.461 1.563-3.83 0-5.29A4.137 4.137 0 0 0 11.996 0m0 .619c.903 0 1.75.327 2.387.922.63.589.977 1.37.977 2.2 0 .83-.347 1.611-.986 2.208L8 12.124 1.617 5.94c-.63-.589-.977-1.37-.977-2.2 0-.83.347-1.611.977-2.2A3.474 3.474 0 0 1 4.004.62c.892 0 1.731.32 2.365.902l1.144 1.3.487.552.487-.553 1.144-1.299A3.476 3.476 0 0 1 11.996.62" mask="url(#b)"/>
    </g>
</svg>
